<svg xmlns="http://www.w3.org/2000/svg" viewBox="0 0 727.653 519.094"><defs><style>.cls-1{fill:rgba(0,0,0,.1)}.cls-2{fill:#d0cde1}.cls-3{fill:#303030}.cls-6{fill:#fff}.cls-7{fill:#d1d1d1}.cls-11{fill:#f8c822}.cls-14{fill:#707070}.cls-15{fill:#f8983d}.cls-16{fill:#fdcb8b}.cls-22{fill:#d3d3d3}</style></defs><g id="Illustration" transform="translate(-273.543 -126.977)"><path id="Shadows" d="M781.558 780.521L511.683 645.237a6.918 6.918 0 01-3.059-9.292 6.655 6.655 0 013.174-3.117l239.633-116.006a6.96 6.96 0 003.925-6.637l-.693-12.178 261.853 131.879a6.94 6.94 0 013.752 7.157l-3.636 25.914a6.8 6.8 0 01-3.694 5.194L794.14 780.521a14 14 0 01-12.582 0zm-417.683-207.2a15.416 15.416 0 00-6.637-3.059c-2.02-.4-16.276-6.233-16.276-6.233s-11.543-5.425-14.948-9.292-5.945-6.58-6.464-10.158-.75-16.68-.75-16.68l59.793 14.371 183.649-86.111s2.078-.75 10.966 3.347c.346.173.75.346 1.1.519 56.792-27.3 57.6-.808 44.383 23.375-13.274 24.3-24.76 33.244-59.908 47.557-35.091 14.313-63.89 39.477-33.244 40.227 14.544.346 32.9-10.562 49.866-21.528 18.757-12.12 35.726-24.24 43.517-21.008 12.12 2.828 17.2 8.253 17.2 8.253l-2.482 2.655s-9.523-5.021-14.717-6.81-9.234.289-20.547 7.5c-11.312 7.272-40.92 32.609-71.74 35.379-30.762 2.713-19.969-22.163-.75-33.879s41.959-18.3 48.942-24.067 32.724-15.641 42.305-44.845-12.87-19.161-38.958-9.292h-.115c2.539 3.982 2.251 8.888 1.731 9.465-.75.75-.75 7.792-9.292 13.217s-13.678 9.754-23.836 13.159c-10.1 3.463-13.505 4.848-19.277 8.253-5.829 3.405-17.141 8.2-21.355 9.234s-18.469 7.33-20.951 8.946-25.167 12.184-28.11 13.399-15.7 8.773-15.7 8.773l-19.1 9.581-23.721 10.677s-14.6 6-19.1 7.041-7.049 1.613-7.049 1.613-5.308-1.382-8.425-3.576z" class="cls-1" transform="translate(-19.137 -135.943)"/><g id="Laptop" transform="translate(481.464 126.977)"><g id="Body"><g id="Group_1" data-name="Group 1" transform="translate(212.584)"><path id="Shape_1_" d="M392.467.741L663.5 137.006a12.782 12.782 0 017.041 12.293l-15.759 233.226a6.331 6.331 0 01-6.753 5.887 5.878 5.878 0 01-2.424-.693L368.4 246.26 382.6 6.4a6.834 6.834 0 017.214-6.406 6.117 6.117 0 012.653.747z" class="cls-2" transform="translate(-367.477 .889)"/><path id="Path_1" d="M647.756 388.643h-.519a7.6 7.6 0 01-2.77-.75L366.8 246.145l.058-.577L381.056 5.7A7.865 7.865 0 01383.6.395a7.586 7.586 0 015.541-1.9 7.743 7.743 0 013 .808l271.083 136.26a13.724 13.724 0 017.5 13.159l-15.753 233.226a7.188 7.188 0 01-2.424 4.963 7.3 7.3 0 01-4.791 1.732zM368.589 245.164l276.686 141.228a5.336 5.336 0 002.078.577 5.569 5.569 0 003.982-1.327 5.343 5.343 0 001.847-3.751l15.756-233.226a11.924 11.924 0 00-6.579-11.485L391.444.857a6.565 6.565 0 00-2.309-.635 6.036 6.036 0 00-4.329 1.5 5.574 5.574 0 00-1.962 4.1z" class="cls-3" data-name="Path 1" transform="translate(-366.8 1.523)"/></g><g id="Group_2" data-name="Group 2" transform="translate(216.335 4.734)"><path id="Shape-2_1_" fill="#3f3d56" d="M398.29 8.983L662.624 141.9a12.466 12.466 0 016.868 12L654.14 381.417a6.2 6.2 0 01-6.58 5.772 6.867 6.867 0 01-2.366-.635L374.8 248.5l13.909-233.977a6.615 6.615 0 019.581-5.541z" transform="translate(-373.934 -7.354)"/><path id="Path_2" d="M647.331 387.379h-.462a6.6 6.6 0 01-2.713-.75L373.3 248.343l.058-.577L387.209 13.79a7.5 7.5 0 0110.908-6.29l264.335 132.916a13.408 13.408 0 017.33 12.87L654.43 380.8a7.158 7.158 0 01-7.099 6.579zM375.089 247.3l269.875 137.77a5.07 5.07 0 002.02.577 5.27 5.27 0 005.656-4.963l15.352-227.512a11.7 11.7 0 00-6.406-11.2L397.252 9.057A5.011 5.011 0 00395 8.48a5.5 5.5 0 00-4.155 1.443 5.581 5.581 0 00-1.9 3.982z" class="cls-3" data-name="Path 2" transform="translate(-373.3 -6.678)"/></g><g id="Group_3" data-name="Group 3" transform="translate(230.072 22.509)"><path id="Shape-3_1_" fill="#eee" d="M420 39.629L659.629 160.08a11.331 11.331 0 016.233 10.908L651.9 377.2a5.581 5.581 0 01-6 5.194 5.341 5.341 0 01-2.135-.577L398.7 256.752l12.582-212.1a6.007 6.007 0 016.349-5.656 5.791 5.791 0 012.366.635z" transform="translate(-397.777 -38.115)"/><path id="Path_3" d="M645.621 382.683h-.462a6.138 6.138 0 01-2.482-.693L397.1 256.634l.058-.577 12.582-212.1a6.908 6.908 0 017.272-6.464 6.6 6.6 0 012.713.75l239.632 120.449a12.15 12.15 0 016.695 11.716l-13.91 206.215a6.5 6.5 0 01-6.522 6.06zM398.889 255.595l244.6 124.837a4.886 4.886 0 001.847.519 4.773 4.773 0 003.463-1.154 4.621 4.621 0 001.616-3.232L664.32 170.35a10.436 10.436 0 00-5.714-10.042L418.916 39.741a4.99 4.99 0 00-2.02-.519 5.489 5.489 0 00-3.751 1.27 5.3 5.3 0 00-1.731 3.578z" class="cls-3" data-name="Path 3" transform="translate(-397.1 -37.477)"/></g><g id="Group_4" data-name="Group 4" transform="translate(0 244.255)"><path id="Shape-4_1_" d="M4.132 540.047l271.376 136.669a18.153 18.153 0 0016.276 0l200.732-101.925c2.366-2.366 2.02-5.829 1.27-8.484a16.651 16.651 0 00-1.5-3.636L464.928 548.3 234.934 433.5l-13.734-7.267a25.468 25.468 0 00-23.605-.115L4.017 526.657a7.5 7.5 0 00-3.232 10.1 7.386 7.386 0 003.347 3.29z" class="cls-2" transform="translate(.909 -422.358)"/><path id="Path_4" d="M282.962 678.815a18.922 18.922 0 01-8.484-2.02L3.1 540.126a8.388 8.388 0 01-.115-14.948l193.52-100.54a26.269 26.269 0 0124.413.115l13.736 7.272 229.995 114.738 27.588 14.544.115.231a21.988 21.988 0 011.558 3.809c1.154 3.982.635 7.214-1.5 9.292l-.115.115-.115.058L291.5 676.795a19.163 19.163 0 01-8.538 2.02zm-74.279-255.331a24.449 24.449 0 00-11.312 2.77L3.8 526.736a6.616 6.616 0 00-2.828 8.946 6.477 6.477 0 002.943 2.886l271.314 136.668a17.358 17.358 0 0015.468 0l200.616-101.809c1.962-2.078 1.616-5.252.981-7.5a19.8 19.8 0 00-1.27-3.232L463.9 548.437l-230-114.796-13.736-7.33a24.5 24.5 0 00-11.481-2.827z" class="cls-3" data-name="Path 4" transform="translate(1.534 -421.687)"/></g><g id="Group_5" data-name="Group 5" transform="translate(.011 352.709)"><path id="Shape-5_1_" d="M4.157 619.807l271.376 136.669a18.153 18.153 0 0016.276 0l200.732-101.925c2.366-2.366 2.02-5.829 1.27-8.484l-200.156 104.06a17.366 17.366 0 01-15.814.115L.117 611.9a7.4 7.4 0 004.04 7.907z" class="cls-1" transform="translate(.873 -610.573)"/><path id="Path_5" d="M282.971 758.274a18.921 18.921 0 01-8.484-2.02L3.111 619.585a8.286 8.286 0 01-4.5-8.83l.173-1.154 1.039.519 277.724 138.4a16.689 16.689 0 0015.064-.115l201.077-104.522.289 1.039c1.154 3.982.635 7.214-1.5 9.292l-.115.115-.115.058-200.735 101.867a19.161 19.161 0 01-8.541 2.02zM.225 612.255a6.587 6.587 0 003.694 5.771L275.237 754.7a17.359 17.359 0 0015.468 0l200.617-101.814c1.674-1.789 1.674-4.329 1.212-6.464L293.417 749.905a18.164 18.164 0 01-16.622.115z" class="cls-3" data-name="Path 5" transform="translate(1.515 -609.6)"/></g><g id="Group_6" data-name="Group 6" transform="translate(109.557 356.294)"><path id="Shape-6_1_" d="M341.924 663.01l-87.9-44.383a12.358 12.358 0 00-11.37.115l-50.962 27.241a3.63 3.63 0 00-1.5 4.906 4.044 4.044 0 001.558 1.558l89.574 45.191a10.242 10.242 0 009.581-.231l51.195-28.856a3.193 3.193 0 001.212-4.271 3.29 3.29 0 00-1.385-1.27z" class="cls-1" transform="translate(-188.916 -616.441)"/><path id="Path_6" d="M285.315 698.972a11.578 11.578 0 01-4.964-1.154l-89.574-45.191a4.793 4.793 0 01-1.962-1.9 4.556 4.556 0 011.847-6.118l50.962-27.241a13.162 13.162 0 0112.178-.115l87.9 44.383a3.913 3.913 0 011.731 1.616 4.058 4.058 0 01-1.558 5.483l-51.193 28.857a10.783 10.783 0 01-5.367 1.38zm-37.457-81.436a11.954 11.954 0 00-5.425 1.327l-50.963 27.242a2.839 2.839 0 00-1.154 3.751 2.6 2.6 0 001.212 1.154L281.1 696.2a9.313 9.313 0 008.715-.173l51.193-28.857a2.393 2.393 0 001.1-1.385 2.044 2.044 0 00-.231-1.731 2.163 2.163 0 00-.981-.923l-87.9-44.383a11.218 11.218 0 00-5.138-1.212z" class="cls-3" data-name="Path 6" transform="translate(-188.29 -615.811)"/></g><g id="Group_7" data-name="Group 7" transform="translate(97.36 254.918)"><path id="Shape-7_1_" d="M539.972 581.333l-94.537 50.212a7.708 7.708 0 01-7.1.058L171.173 496.492a4.588 4.588 0 01-2.02-6.118 4.868 4.868 0 012.02-2.02l92.344-45.71a9.963 9.963 0 018.946.058l267.509 134.764a2.143 2.143 0 01.981 2.886 2.667 2.667 0 01-.981.981z" class="cls-1" transform="translate(-167.801 -440.775)"/><path id="Path_7" d="M441.155 632.721a8.3 8.3 0 01-3.867-.923L170.126 496.687a5.382 5.382 0 01-2.366-7.272 5.47 5.47 0 012.424-2.424l92.344-45.71a10.818 10.818 0 019.7.058L539.674 576.1a2.786 2.786 0 011.5 1.731 2.719 2.719 0 01-.058 2.02h1.616l-3.059 1.616-94.537 50.212a8.043 8.043 0 01-3.981 1.042zM267.317 441.916a9 9 0 00-4.04.923l-92.344 45.71a4.1 4.1 0 00-1.674 1.616 3.724 3.724 0 001.616 4.963l267.163 135.111a6.91 6.91 0 006.291-.058l94.537-50.212a1.834 1.834 0 00.577-.577 1.159 1.159 0 00.058-.981 1.365 1.365 0 00-.635-.75L271.473 442.839a9.312 9.312 0 00-4.156-.923z" class="cls-3" data-name="Path 7" transform="translate(-167.158 -440.162)"/></g></g><g id="Content" transform="translate(229.455 21.355)"><g id="Group_8" data-name="Group 8"><path id="Screen_1_" d="M21.3.629L260.929 121.08a11.331 11.331 0 016.233 10.908L253.253 338.2a5.581 5.581 0 01-6 5.194 5.342 5.342 0 01-2.135-.577L0 217.752 12.582 5.65a6.007 6.007 0 016.349-5.656A6.54 6.54 0 0121.3.629z" class="cls-6" transform="translate(.923 .885)"/><path id="Path_8" d="M246.978 343.684h-.462a6.138 6.138 0 01-2.482-.693L-1.6 217.634l.058-.577L11.04 4.955a6.894 6.894 0 017.272-6.464 6.6 6.6 0 012.713.75l-.4.75.4-.75 239.632 120.451a12.15 12.15 0 016.695 11.716l-13.91 206.216a6.5 6.5 0 01-6.464 6.06zM.247 216.6l244.6 124.837a4.886 4.886 0 001.847.519 4.773 4.773 0 003.463-1.154 4.621 4.621 0 001.616-3.232l13.905-206.22a10.436 10.436 0 00-5.714-10.042L20.216.8A4.99 4.99 0 0018.2.28a5.207 5.207 0 00-5.483 4.848z" class="cls-3" data-name="Path 8" transform="translate(1.6 1.522)"/></g><g id="Code" transform="translate(23.432 25.692)"><g id="Function_2" transform="translate(0 92.344)"><path id="Line_5" d="M52.651 128.005l-.519 6.695L10 113.692l.4-6.692c0-.349 42.309 20.255 42.251 21.005z" class="cls-7" transform="translate(-4.229 -45.238)"/><path id="Line_4" d="M120.483 134.247l-.519 6.695L25.6 95.693 26 89c.062-.348 94.541 44.5 94.483 45.247z" class="cls-7" transform="translate(-10.825 -37.628)"/><path id="Line_3" d="M104.883 100.247l-.519 6.695L10 61.693 10.4 55c0-.348 94.541 44.5 94.483 45.247z" class="cls-7" transform="translate(-4.229 -23.251)"/><path id="Line_2" d="M105.226 76.247l-.519 6.695L10.4 37.693 10.8 31c0-.348 94.483 44.5 94.426 45.247z" class="cls-7" transform="translate(-4.398 -13.103)"/><path id="Line_1" d="M42.651 21.005l-.519 6.695L0 6.692.4 0c0-.349 42.309 20.255 42.251 21.005z" class="cls-7" transform="translate(0 .007)"/></g><g id="Function" transform="translate(5.194)"><path id="Line_5-2" d="M52.651 128.005l-.519 6.695L10 113.692l.4-6.692c0-.349 42.309 20.255 42.251 21.005z" class="cls-7" transform="translate(-4.229 -45.238)"/><path id="Line_4-2" d="M120.483 134.247l-.519 6.695L25.6 95.693 26 89c.062-.348 94.541 44.5 94.483 45.247z" class="cls-7" transform="translate(-10.825 -37.628)"/><path id="Line_3-2" d="M104.883 100.247l-.519 6.695L10 61.693 10.4 55c0-.348 94.541 44.5 94.483 45.247z" class="cls-7" transform="translate(-4.229 -23.251)"/><path id="Line_2-2" d="M105.226 76.247l-.519 6.695L10.4 37.693 10.8 31c0-.348 94.483 44.5 94.426 45.247z" class="cls-7" transform="translate(-4.398 -13.103)"/><path id="Line_1-2" d="M42.651 21.005l-.519 6.695L0 6.692.4 0c0-.349 42.309 20.255 42.251 21.005z" class="cls-7" transform="translate(0 .007)"/></g></g><g id="Popup" transform="translate(71.624 88.151)"><path id="Popup_Shadow" fill="#f1f1f1" d="M10.042.283l113.006 59.446a5.6 5.6 0 012.943 5.368l-6.58 101.751a2.79 2.79 0 01-1.327 2.193 2.536 2.536 0 01-2.482.058L0 107.4 5.945 2.765A3.025 3.025 0 017.388.341a2.874 2.874 0 012.654-.058z" transform="translate(0 .013)"/><path id="Popup-2" fill="#403f3e" d="M17.734 17.445l104.06 52.29a4.925 4.925 0 012.713 4.733l-6.06 89.574a2.479 2.479 0 01-3.521 2.02L8.5 111.693l5.483-92.113a2.641 2.641 0 012.77-2.482 2.842 2.842 0 01.981.347z" transform="translate(-3.594 -7.222)"/><g id="Content-2" transform="translate(14.802 53.613)"><path id="Line_3-3" d="M96.617 88.335l-.288 3.865L71.8 80.024l.231-3.925c0-.115 24.586 11.774 24.586 12.236z" class="cls-6" transform="translate(-30.446 -34.548)"/><path id="Line_2-3" fill="#c7c7c7" d="M118.3 66l-.231 3.117L73.8 47.874l.173-3.174c0-.116 44.383 20.95 44.327 21.3z" transform="translate(-31.291 -21.27)"/><path id="Line_1-3" d="M94.827 40.868l-.227 3.117-19.8-9.811.173-3.174c0-.116 19.854 9.522 19.854 9.868z" class="cls-11" transform="translate(-31.714 -15.477)"/><g id="like" transform="rotate(15.009 3.767 28.596)"><path id="Path_1-2" fill="#ffc98d" d="M19.335 14.66a2.131 2.131 0 012.135 2.14 2.168 2.168 0 01-2.135 2.135h-.923v.058a2.216 2.216 0 011.616 2.6 2.153 2.153 0 01-2.078 1.674h-1.444a2.13 2.13 0 012.135 2.135 2.168 2.168 0 01-2.135 2.135H8.773c-3.925 0-4.963-.462-8.773-1.443V11.832c.115-.058 11.485-2.135 11.485-9v-.697A2.131 2.131 0 0113.621 0a2.168 2.168 0 012.135 2.135 17.114 17.114 0 01-1.443 8.311h6.464a2.131 2.131 0 012.135 2.135 2.168 2.168 0 01-2.135 2.135z" data-name="Path_1" transform="translate(9.292 .75)"/><path id="Path_2-2" fill="#f39f9f" d="M8.6 1.443v14.313A1.429 1.429 0 017.157 17.2H0V0h7.157A1.429 1.429 0 018.6 1.443z" data-name="Path_2" transform="translate(.693 11.139)"/><path id="Path_4-2" d="M.693 0A.7.7 0 000 .693a.7.7 0 00.693.693.7.7 0 00.692-.693A.745.745 0 00.693 0z" class="cls-14" data-name="Path_4" transform="translate(5.771 14.717)"/><path id="Path_5-2" d="M30.069 10.446H24.7a18.331 18.331 0 001.1-6.81 3.549 3.549 0 00-.058-.808 2.857 2.857 0 00-5.714.058v.693c0 4.5-5.829 7.1-10.216 8.138a2.076 2.076 0 00-1.962-1.27H.693a.7.7 0 00-.693.692v17.2a.7.7 0 00.693.693h7.156a2.167 2.167 0 001.962-1.27c.346.115.693.173 1.039.289a25.656 25.656 0 007.214 1.039h7.676a2.894 2.894 0 002.887-2.89 3.265 3.265 0 00-.462-1.616 2.8 2.8 0 001.735-3.633 2.134 2.134 0 00-.289-.635 2.828 2.828 0 001.731-3.636 1.376 1.376 0 00-.346-.635 2.828 2.828 0 001.731-3.636 2.719 2.719 0 00-2.655-1.962zM8.6 26.9a.7.7 0 01-.693.693H1.443V11.832h6.464a.7.7 0 01.693.693zm21.47-12.178h-3.579a.7.7 0 00-.693.693.745.745 0 00.693.693h2.135a1.443 1.443 0 110 2.886h-3.578a.7.7 0 00-.693.693.745.745 0 00.693.693h2.135a1.443 1.443 0 010 2.886h-3.578a.7.7 0 00-.693.693.745.745 0 00.693.693h2.135a1.443 1.443 0 010 2.886h-7.675a21.507 21.507 0 01-6.868-.981c-.346-.115-.75-.173-1.212-.289v-13.1c5.194-1.212 11.428-4.271 11.428-9.581v-.701a1.443 1.443 0 012.886 0 16.542 16.542 0 01-1.154 7.561h-2.368a.693.693 0 000 1.385h9.292a1.443 1.443 0 110 2.886z" class="cls-14" data-name="Path_5"/><path id="Path_6-2" d="M.693 0A.7.7 0 000 .693v5.713a.7.7 0 00.693.694.7.7 0 00.693-.693V.693A.7.7 0 00.693 0z" class="cls-14" data-name="Path_6" transform="translate(5.771 17.603)"/></g></g></g></g></g><g id="Sammich" transform="rotate(-2 7193.575 -7689.54)"><g id="Body-2"><g id="Group_9" data-name="Group 9" transform="translate(20.203 71.807)"><path id="Bottom_Bun_Outline_1_" d="M57.542 79.531L238.363 2.6s2.424.462 6.349-2.6c7.272 3 7.1 12.351 6.349 13.1s-.75 7.445-8.946 12.7-13.159 9.35-22.913 12.7-12.986 4.675-18.584 7.965-16.506 7.792-20.547 8.773-17.776 7.041-20.143 8.6S135.746 75.549 132.86 76.7c-2.828 1.154-15.064 8.369-15.064 8.369l-18.353 9.237-22.8 10.216s-14.082 5.771-18.353 6.81c-4.329.981-6.81 1.558-6.81 1.558a30.065 30.065 0 01-8.08-3.463 14.161 14.161 0 00-6.349-2.943c-1.962-.4-15.7-6-15.7-6s-11.078-5.197-14.367-8.948S1.327 85.245.75 81.782C.231 78.319 0 65.737 0 65.737l57.542 13.794" class="cls-15" transform="translate(.808 .81)"/><path id="Path_9" d="M52.232 114.567h-.173a30.735 30.735 0 01-8.369-3.578c-2.943-2.078-4.213-2.424-6-2.77-1.962-.4-14.371-5.483-15.814-6.06-.519-.231-11.37-5.367-14.66-9.177l-.75-.866c-2.886-3.29-5.137-5.887-5.714-9.35C.231 79.245 0 67.125 0 66.605a.823.823 0 01.346-.693.875.875 0 01.75-.173L58.35 79.476 238.882 2.657a.815.815 0 01.518-.057s2.135.289 5.656-2.424a.921.921 0 01.866-.115 11.77 11.77 0 016.926 9.061c.4 2.02.462 4.559-.289 5.367-.058.115-.173.577-.289.923a19.119 19.119 0 01-8.83 11.889 255.84 255.84 0 00-4.848 3.174c-5.6 3.751-10.446 6.926-18.238 9.581-9.869 3.347-12.928 4.675-18.411 7.907-5.771 3.405-16.8 8.022-20.777 9s-17.661 6.984-19.912 8.484c-2.424 1.616-24.125 11.658-27.184 12.928-2.77 1.154-14.833 8.253-14.948 8.311l-18.411 9.292L77.857 106.2c-.577.231-14.2 5.829-18.526 6.81-4.271.981-6.753 1.558-6.753 1.558zM1.731 67.644c.058 3.174.289 12.062.693 14.833.462 2.943 2.482 5.252 5.31 8.484l.75.866c3.059 3.578 13.967 8.657 14.082 8.715 3.751 1.558 13.909 5.6 15.41 5.945a14.773 14.773 0 016.695 3.059 29.348 29.348 0 007.618 3.29c.693-.173 3-.693 6.58-1.5 4.213-.981 18.122-6.695 18.238-6.753L99.9 94.366l18.353-9.234c.462-.289 12.236-7.214 15.121-8.369 3.347-1.385 24.7-11.312 26.9-12.813 2.366-1.558 16.218-7.676 20.431-8.715 3.867-.923 14.66-5.483 20.316-8.773 5.6-3.29 8.715-4.617 18.7-8.022 7.561-2.6 12.12-5.6 17.834-9.408a237.656 237.656 0 014.848-3.174 17.975 17.975 0 008.138-10.908 4.91 4.91 0 01.635-1.616 10.718 10.718 0 00-.693-6 9.837 9.837 0 00-4.848-5.483c-3.29 2.424-5.541 2.539-6.349 2.482L58.7 81.15a1 1 0 01-.577.058zm250.714-53.155zm-1.27-1.154zm.058-.058z" class="cls-3" data-name="Path 9"/></g><g id="Group_10" data-name="Group 10" transform="translate(20.146 137.409)"><path id="Bottom_Bun_End_1_" d="M57.542 13.794l1.847 18.7s-.115 9.465-3.751 11.6a17.359 17.359 0 01-7.1 2.251 16.548 16.548 0 01-5.252-2.6 14.161 14.161 0 00-6.348-2.945c-1.962-.4-15.583-6.06-15.583-6.06S10.273 29.55 6.984 25.8 1.327 19.508.75 16.045C.231 12.582 0 0 0 0l57.542 13.794" class="cls-16" transform="translate(.866 .945)"/><path id="Path_10" d="M49.4 48.1a.436.436 0 01-.231-.058 15.867 15.867 0 01-5.483-2.77c-2.943-2.078-4.213-2.424-6-2.77-1.962-.4-14.371-5.483-15.814-6.06-.519-.231-11.37-5.367-14.66-9.177l-.75-.866C3.578 23.108 1.327 20.51.75 17.048.231 13.527 0 1.407 0 .887A.823.823 0 01.346.195.875.875 0 011.1.022l57.538 13.793a.8.8 0 01.635.75l1.847 18.7v.115c0 1.039-.231 9.985-4.155 12.293a17.906 17.906 0 01-7.445 2.366c-.058.061-.058.061-.12.061zM1.789 2.042c.058 3.174.289 12.062.693 14.833.462 2.943 2.482 5.252 5.31 8.484l.75.866c3.058 3.575 13.967 8.656 14.082 8.714 3.751 1.558 13.909 5.6 15.41 5.945a14.773 14.773 0 016.695 3.059 15.011 15.011 0 004.79 2.424 15.793 15.793 0 006.58-2.135c2.6-1.5 3.29-8.253 3.29-10.793L57.6 15.432z" class="cls-3" data-name="Path 10"/></g><path id="Lettuce_Shadow" d="M0 83.513c1.154 1.674.231 7.33.866 7.33a48.373 48.373 0 005.194-1.789s-1.674 4.1-1.039 5.656 2.655 4.271 3.982 4.444 6.349-.346 7.272-.346 2.886 1.5 4.1 1.5a7.759 7.759 0 004.5-2.655c.693-1.1 2.02-3.405 2.886-3.694.866-.346.577 4.444.577 4.444s-.173 6.06-.577 6.753c-.4.635-.289 3.809-.289 3.809s2.02 1.789 3.347 1.558 5.771-.693 6.695-1.674a5.955 5.955 0 001.5-2.539c.173-.693-1.1-8.08-.519-9.292s.923-3.751 2.943-3.925a4.207 4.207 0 013.809 1.847 75.179 75.179 0 005.31 6.349c1.385 1.27 4.617 3.29 5.541 4.906s1.847 6.349 2.309 6.753a11.036 11.036 0 001.847.923s2.539-.519 3.059-1.1 1.962-2.02 2.02-3.117a14.9 14.9 0 00-1.674-5.829 26.31 26.31 0 01-1.847-7.849c.058-.866.115-.808.693-1.443.519-.577 1.847-.058 1.847-.058s3.29 2.135 4.271 2.078a8.706 8.706 0 003.347-1.039c.577-.462 2.482-4.733 3.059-5.367s5.079-5.079 7.041-4.617 1.789 2.309 2.193 2.943-.115 5.137 1.9 5.829 2.424.866 4.271.693c1.847-.115 2.886-2.078 3.29-2.539s1.558-4.733 2.539-5.945a36.136 36.136 0 014.155-3.751 21.683 21.683 0 002.135-3.29s4.1 1.327 4.848 2.6 2.539 3 3.117 3 1.9.462 3.117-.289a11.393 11.393 0 003.809-5.367c.75-2.309 1.558-5.829 1.847-6.695a5.894 5.894 0 011.385-2.193c.289-.173 4.213-1.558 4.213-1.558s.635-1.847 3.463-2.539c2.828-.75 3.521 1.212 3.521 1.212s3.174 4.733 3.174 5.425c0 .75 1.9.693 1.9.693a2.519 2.519 0 002.366-1.558 18.659 18.659 0 001.616-5.829 10.7 10.7 0 011.1-3 2.441 2.441 0 013-.346c1.847.923 3.751 2.251 4.5 2.251s2.135.577 3.809-.866a4.625 4.625 0 001.789-3.578c.115-.866 1.154-2.77 2.02-2.77s1.443-.693 3.174-.289c1.731.462 5.079 2.193 6.406 2.366s2.6.4 3.809-.346a8.84 8.84 0 002.539-3.405 4.642 4.642 0 00-.289-3.174 10.016 10.016 0 01-.808-2.193 2.251 2.251 0 011.962-1.443c1.674-.289 3.232-.577 3.925-.75s3.29-2.135 4.733-2.366 2.424 1.443 3.29 1.5a4.593 4.593 0 002.655-.289c.808-.462 2.6-2.943 2.943-3.117s1.789-1.962 2.943-2.02 5.6-1.385 7.041-3.174c1.385-1.789.519-2.02.808-2.078s2.251-.75 3.232-.4 3.636 1.5 5.252 1.5a4.049 4.049 0 002.713-1.154c.289-.173 1.731-3.809 2.193-4.444s.75-1.9 2.135-1.327a4.953 4.953 0 012.251 3.578c-.173.4.115 7.041 1.789 7.618s2.251.866 3 .462 3.636-3.174 3.925-4.733c.289-1.5.519-2.943-.346-4.386a9.877 9.877 0 01-1.27-4.329c.173-.289.923-1.5 2.02-1.558s1.731.693 2.943.635 1.962-2.539 2.309-3.347-.289-1.847 1.154-2.713a2.555 2.555 0 012.713 0s5.137 2.078 6.406 2.078a7.832 7.832 0 003.636-1.154c.173-.289-.231-4.675 1.039-5.31S239.29 0 239.29 0-1.15 81.84 0 83.513z" class="cls-1" transform="translate(21.7 60.785)"/><g id="Group_11" data-name="Group 11" transform="translate(9.642 55.539)"><path id="Lettuce_Outline_1_" fill="#c7de51" d="M23.663 45.38s-5.945-2.424-8.6-.346-5.194 9.408-8.6 10.446S.75 67.6.75 67.6s2.828 3.117 2.713 3.982S0 75.969 0 77.7s.981 2.078.981 2.078a10.961 10.961 0 012.309-.808c1.154-.173 2.943.289 3.521 1.443s-.173 6.406.981 8.138a6.324 6.324 0 003.578 2.713 53.265 53.265 0 005.194-1.789s-1.674 4.1-1.039 5.656 2.655 4.271 3.982 4.444 6.349-.346 7.272-.346 2.886 1.5 4.1 1.5a7.759 7.759 0 004.5-2.655c.693-1.1 2.02-3.405 2.886-3.694.866-.346.577 4.444.577 4.444s-.173 6.06-.577 6.753c-.4.635-.289 3.809-.289 3.809s2.02 1.789 3.347 1.558 5.771-.693 6.695-1.674a5.956 5.956 0 001.5-2.539c.173-.693-1.1-8.08-.519-9.292.577-1.154.923-3.751 2.943-3.925a4.207 4.207 0 013.809 1.847 75.178 75.178 0 005.31 6.349c1.385 1.27 4.617 3.29 5.541 4.906s1.847 6.349 2.309 6.753a11.036 11.036 0 001.847.923s2.539-.519 3.059-1.1 1.962-2.02 2.02-3.117a14.9 14.9 0 00-1.674-5.829 26.31 26.31 0 01-1.846-7.846c.058-.866.115-.808.693-1.443.519-.577 1.847-.058 1.847-.058s3.29 2.135 4.271 2.078a8.706 8.706 0 003.347-1.039c.577-.462 2.482-4.733 3.059-5.367s5.079-5.079 7.041-4.617 1.789 2.309 2.193 2.943-.115 5.137 1.9 5.829 2.424.866 4.271.693c1.847-.115 2.886-2.078 3.29-2.539s1.558-4.733 2.539-5.945a36.136 36.136 0 014.155-3.751 21.683 21.683 0 002.135-3.29s4.1 1.327 4.848 2.6 2.539 3 3.117 3 1.9.462 3.117-.289a11.394 11.394 0 003.809-5.367c.75-2.309 1.558-5.829 1.847-6.695a5.894 5.894 0 011.385-2.193c.289-.173 4.213-1.558 4.213-1.558s.635-1.847 3.463-2.539c2.828-.75 3.521 1.212 3.521 1.212s3.174 4.733 3.174 5.425 1.9.693 1.9.693a2.519 2.519 0 002.366-1.558 18.658 18.658 0 001.616-5.829 10.7 10.7 0 011.1-3 2.441 2.441 0 013-.346c1.847.923 3.751 2.251 4.5 2.251s2.135.577 3.809-.866a4.625 4.625 0 001.789-3.578c.115-.866 1.154-2.77 2.02-2.77s1.443-.693 3.174-.289c1.731.462 5.079 2.193 6.406 2.366s2.6.4 3.809-.346a8.84 8.84 0 002.539-3.405 4.642 4.642 0 00-.289-3.174 10.016 10.016 0 01-.808-2.193A2.251 2.251 0 01184.457 50c1.674-.289 3.232-.577 3.925-.75s3.29-2.135 4.733-2.366 2.424 1.443 3.29 1.5a4.593 4.593 0 002.655-.289c.808-.462 2.6-2.943 2.943-3.117s1.789-1.962 2.943-2.02 5.6-1.385 7.041-3.174c1.385-1.789.519-2.02.808-2.078s2.251-.75 3.232-.4 3.636 1.5 5.252 1.5a4.049 4.049 0 002.713-1.154c.289-.173 1.731-3.809 2.193-4.444s.75-1.9 2.135-1.327a4.953 4.953 0 012.251 3.578c-.173.4.115 7.041 1.789 7.618s2.251.866 3 .462 3.64-3.18 3.926-4.739c.289-1.5.519-2.943-.346-4.386a9.877 9.877 0 01-1.27-4.329c.173-.231.923-1.5 2.02-1.558 1.154-.058 1.731.693 2.943.635s1.962-2.539 2.309-3.347-.289-1.847 1.154-2.713a2.555 2.555 0 012.713 0s5.137 2.078 6.406 2.078a7.832 7.832 0 003.636-1.154c.115-.289 1.327-3.925 2.539-4.559a4.619 4.619 0 012.251-.75c.519 0 3.347.289 4.329-.346s2.539-2.6 2.02-4.1.981-4.1-.346-6.06-3.232-5.194-6.753-6.984-5.31-1.1-5.31-1.1z" transform="translate(.808 1.19)"/><path id="Path_11" d="M71.451 116.175a.52.52 0 01-.289-.058 9.323 9.323 0 01-2.02-.981c-.058 0-.058-.058-.115-.058-.346-.346-.577-.923-1.154-3.059a21.972 21.972 0 00-1.327-3.925c-.519-.981-2.193-2.251-3.578-3.232a31.516 31.516 0 01-1.789-1.443 65.592 65.592 0 01-5.425-6.464 3.333 3.333 0 00-3-1.443c-.923.115-1.327 1.039-1.789 2.366a9.854 9.854 0 01-.4 1.039c-.231.635.173 3.982.346 5.771.289 2.309.346 3 .231 3.347a7.244 7.244 0 01-1.742 2.945c-.808.923-3.174 1.385-6.637 1.847l-.519.058c-1.616.231-3.636-1.443-4.04-1.789a.927.927 0 01-.289-.635 11.989 11.989 0 01.346-4.213 47.858 47.858 0 00.462-6.349 16.619 16.619 0 00-.058-3c-.519.635-1.1 1.616-1.443 2.135-.173.231-.289.462-.4.635-.808 1.27-3.636 3.059-5.252 3.059a6.334 6.334 0 01-2.713-.923 5.925 5.925 0 00-1.385-.577c-.289 0-1.039.058-1.847.115a32.371 32.371 0 01-5.483.173c-1.789-.289-3.982-3.405-4.675-4.963-.462-1.154-.058-3.059.4-4.5a21.74 21.74 0 01-3.689 1.147c-1.039 0-3.117-1.327-4.329-3.059-.866-1.212-.866-3.463-.866-5.6a10.724 10.724 0 00-.173-2.655 2.6 2.6 0 00-2.6-.981 6.455 6.455 0 00-2.02.693.965.965 0 01-.693.058C1.327 81.6 0 80.968 0 78.775c0-1.212 1.039-2.77 2.424-4.675.4-.519.866-1.212 1.039-1.5a17.069 17.069 0 00-2.424-3.29.909.909 0 01-.231-.75C1.212 66.6 3.405 56.9 7.1 55.8c1.674-.519 3.347-3.232 4.79-5.6a19.368 19.368 0 013.521-4.733c2.713-2.135 7.907-.346 9.177.173L257.986.168c.462-.173 2.482-.577 5.945 1.154 3.29 1.674 5.194 4.5 6.579 6.58a8.443 8.443 0 00.519.75 5.819 5.819 0 01.519 4.444 4.068 4.068 0 00-.058 1.847c.693 2.078-1.212 4.386-2.366 5.137-.923.635-2.655.635-4.444.519h-.4a3.959 3.959 0 00-1.847.635c-.173.115-.923.693-2.078 3.867a.974.974 0 00-.115.289c-.4.923-3.347 1.674-4.386 1.674-1.385 0-5.829-1.789-6.753-2.135a.2.2 0 01-.115-.058 1.671 1.671 0 00-1.789 0c-.577.346-.577.577-.635 1.154a2.815 2.815 0 01-.173 1.154c-.058.115-.058.231-.115.346-.519 1.27-1.385 3.463-2.943 3.578a4.047 4.047 0 01-1.847-.346 1.893 1.893 0 00-1.1-.231c-.4 0-.808.346-1.27.981a11.948 11.948 0 001.154 3.578c1.039 1.674.808 3.347.462 5.021-.346 1.847-3.463 4.848-4.386 5.31-1.039.577-1.9.231-3.463-.346l-.231-.115a2.52 2.52 0 01-1.385-1.558 19.4 19.4 0 01-.981-7.041 4.75 4.75 0 00-1.731-2.655c-.346-.173-.4-.173-.808.519-.115.173-.173.346-.289.519a16.588 16.588 0 00-.923 1.962c-.981 2.135-1.154 2.6-1.558 2.77-.058 0-.058.058-.115.115a4.577 4.577 0 01-2.943 1.1 17.106 17.106 0 01-4.906-1.327 4.384 4.384 0 00-.635-.231c-.115-.058-.635-.173-2.078.231a4.022 4.022 0 01-.981 1.962c-1.674 2.135-6.579 3.405-7.618 3.521-.519.058-1.443.981-1.847 1.327a4.719 4.719 0 01-.635.577 19.99 19.99 0 00-.75.866 11.589 11.589 0 01-2.193 2.251 4.794 4.794 0 01-2.77.462h-.346a3.247 3.247 0 01-1.674-.808c-.519-.4-.981-.75-1.443-.693a12.2 12.2 0 00-2.886 1.443 5.745 5.745 0 01-1.731.866c-.693.173-2.251.462-3.982.75a1.887 1.887 0 00-1.212.635 10.478 10.478 0 00.635 1.731 4.862 4.862 0 01.346 3.809c-.173.519-1.443 3.059-2.943 3.925a5.926 5.926 0 01-4.155.462h-.173a19.424 19.424 0 01-3.463-1.212 23.554 23.554 0 00-3-1.154 3.123 3.123 0 00-1.847.058 3.375 3.375 0 01-1.1.231 3.645 3.645 0 00-1.154 1.962 5.361 5.361 0 01-2.076 4.21 4.473 4.473 0 01-3.982 1.1c-.173 0-.289-.058-.4-.058a7.772 7.772 0 01-2.886-1.212c-.635-.346-1.327-.75-1.962-1.1a.057.057 0 01-.058-.058 1.568 1.568 0 00-1.847.173 9.739 9.739 0 00-.981 2.424v.115a18.532 18.532 0 01-1.674 6.118 3.556 3.556 0 01-3.174 2.078 3.869 3.869 0 01-2.366-.635 1.227 1.227 0 01-.4-.866 34.751 34.751 0 00-3.07-5.019c-.058-.058-.058-.115-.115-.173-.058-.173-.577-1.154-2.482-.693-2.309.577-2.886 1.962-2.886 2.02a1.132 1.132 0 01-.519.519c-1.674.577-3.521 1.212-3.982 1.443a5.756 5.756 0 00-1.1 1.789c-.115.346-.346 1.212-.577 2.193-.346 1.385-.808 3.117-1.27 4.5a11.984 11.984 0 01-4.213 5.829 4.657 4.657 0 01-3.174.4c-.173 0-.289-.058-.4-.058-1.154 0-3.232-2.251-3.867-3.405-.289-.519-2.02-1.385-3.694-1.962a13.506 13.506 0 01-2.02 2.943 25.488 25.488 0 00-4.04 3.578 16.026 16.026 0 00-1.616 3.809 10.385 10.385 0 01-.923 2.193 1.262 1.262 0 00-.173.289c-.577.808-1.731 2.424-3.636 2.6a8.956 8.956 0 01-4.617-.75c-1.962-.693-2.135-3.405-2.309-5.252a4.71 4.71 0 00-.115-1.039 2.553 2.553 0 01-.289-.866c-.231-.866-.462-1.443-1.327-1.674-1.154-.289-4.906 2.886-6.233 4.386-.173.231-.808 1.385-1.27 2.251-1.039 2.02-1.5 2.886-1.9 3.174-.058 0-.058.058-.115.058a9.222 9.222 0 01-3.694 1.154c-1.1.058-3.405-1.327-4.733-2.193a1.492 1.492 0 00-.808-.115l-.115.173a1 1 0 00-.289.75 25.342 25.342 0 001.789 7.388 15.256 15.256 0 011.789 6.291c-.058 1.154-1.1 2.366-2.02 3.405-.058.115-.173.173-.231.231-.635.693-2.482 1.154-3.521 1.385zm-1.212-2.424a8.689 8.689 0 001.27.635 7.616 7.616 0 002.366-.808c.058-.058.115-.173.231-.231.462-.519 1.558-1.674 1.558-2.309a14.409 14.409 0 00-1.558-5.367 27.3 27.3 0 01-1.962-8.311 2.131 2.131 0 01.75-1.731l.173-.173c.866-.981 2.482-.4 2.77-.289.058 0 .115.058.173.058a13.62 13.62 0 003.751 1.962 8.752 8.752 0 002.886-.866 26.863 26.863 0 001.443-2.6 22.093 22.093 0 011.5-2.655c.058-.058 5.137-5.541 7.907-4.906a3.445 3.445 0 012.6 2.886 1.954 1.954 0 00.173.462 5.054 5.054 0 01.346 1.789c.058 1.212.231 3.405 1.154 3.694a7.2 7.2 0 003.925.693c1.1-.058 1.962-1.212 2.366-1.847.115-.173.231-.289.289-.4s.4-.981.635-1.616a16.077 16.077 0 011.9-4.271 32.376 32.376 0 014.271-3.867 17.716 17.716 0 001.962-3.059.9.9 0 011.039-.4c1.039.346 4.5 1.5 5.367 3a7.941 7.941 0 002.482 2.539c.173 0 .346.058.577.058a3.3 3.3 0 002.078-.231 10.567 10.567 0 003.405-4.848c.4-1.27.866-3 1.212-4.386.289-1.1.519-1.9.635-2.366a6.958 6.958 0 011.558-2.482l.115-.115c.115-.115.346-.289 4.155-1.558a6.009 6.009 0 013.867-2.713c2.713-.693 4.1.693 4.5 1.674 2.539 3.751 3.117 5.021 3.232 5.541a5.313 5.313 0 001.1.115h.115a1.837 1.837 0 001.5-1.1 16.492 16.492 0 001.5-5.483 10.523 10.523 0 011.212-3.347c.058-.058.115-.173.173-.231a3.329 3.329 0 013.982-.519c.693.346 1.443.75 2.078 1.1a17.162 17.162 0 002.02 1.039 2.588 2.588 0 01.635.058 2.842 2.842 0 002.655-.693 3.746 3.746 0 001.443-2.943v-.115c.115-1.039 1.327-3.578 2.886-3.578a2.541 2.541 0 00.577-.115 4.588 4.588 0 012.77-.115c.866.231 2.078.75 3.29 1.212a18.54 18.54 0 003.059 1.1h.173a4.555 4.555 0 003.059-.231 7.959 7.959 0 002.135-2.943 3.368 3.368 0 00-.231-2.482 8.986 8.986 0 01-.866-2.366v-.4a3 3 0 012.655-2.078 38.372 38.372 0 003.867-.75 10.441 10.441 0 001.27-.693 12.837 12.837 0 013.521-1.674 3.955 3.955 0 012.77.981c.231.173.577.462.75.462h.346a3.223 3.223 0 001.847-.231 11.744 11.744 0 001.731-1.9c.693-.808.923-1.1 1.154-1.212l.346-.346c.75-.693 1.789-1.731 2.943-1.847 1.1-.058 5.252-1.385 6.406-2.828.635-.808.635-1.1.635-1.1a.945.945 0 01.635-1.27 6.151 6.151 0 013.751-.4c.173.058.4.173.635.231a16.32 16.32 0 004.271 1.212 2.759 2.759 0 001.847-.75c.115-.058.173-.115.289-.173.173-.346.635-1.327.923-2.02a20.7 20.7 0 011.1-2.251l.173-.346c.346-.635 1.154-2.078 2.943-1.327 1.443.577 2.251 2.424 2.482 2.943a2.632 2.632 0 01.289 1.674c-.115 1.154.462 6.118 1.27 6.579l.231.115c1.443.519 1.731.635 2.078.462.577-.289 3.232-2.943 3.463-4.1.289-1.5.462-2.655-.231-3.809-.635-1.1-1.847-4.386-1.27-5.31l.058-.058a3.566 3.566 0 012.713-1.9 4.583 4.583 0 011.731.346 2.081 2.081 0 001.154.231c.173 0 .577-.289 1.443-2.482a2.814 2.814 0 01.173-.4 1.281 1.281 0 00.058-.519A2.61 2.61 0 01246.5 23.2a3.363 3.363 0 013.521-.058 35.186 35.186 0 006 2.02 7.765 7.765 0 002.886-.808v-.058c1.039-2.828 1.9-4.271 2.886-4.79a5.628 5.628 0 012.655-.866h.462a8.015 8.015 0 003.405-.231c.866-.577 1.962-2.193 1.674-3.117a5.885 5.885 0 010-2.655c.173-1.212.346-2.309-.231-3.174a8.43 8.43 0 01-.519-.75c-1.27-1.9-3-4.5-5.887-5.945-3.059-1.558-4.617-1.039-4.617-1.039-.058 0-.115 0-.115.058L24.644 47.436a.815.815 0 01-.519-.058c-1.5-.635-5.887-1.9-7.734-.519a17.385 17.385 0 00-3.117 4.271c-1.731 2.77-3.462 5.656-5.774 6.349-1.962.577-4.04 6.695-5.021 11.024q2.77 3.117 2.6 4.329c-.058.519-.519 1.1-1.385 2.309-.808 1.1-2.078 2.886-2.078 3.636a2.208 2.208 0 00.231 1.1 11.75 11.75 0 012.02-.635 4.329 4.329 0 014.5 1.9c.346.635.346 1.674.346 3.405 0 1.616 0 3.867.577 4.617a6.288 6.288 0 002.886 2.309 50.109 50.109 0 004.848-1.731.8.8 0 01.923.231.9.9 0 01.173.923c-.635 1.5-1.385 4.155-1.039 5.021.693 1.616 2.539 3.809 3.29 3.925a44.737 44.737 0 005.137-.231c.981-.058 1.674-.115 2.02-.115a5.285 5.285 0 012.135.75 6.061 6.061 0 001.962.75 7.207 7.207 0 003.809-2.309c.115-.173.231-.4.4-.635 1.1-1.731 1.962-3.059 2.886-3.405a1.323 1.323 0 011.039.115c.289.173.981.693.75 5.137-.115 4.155-.346 6.579-.693 7.157A15.353 15.353 0 0039.65 110a4.7 4.7 0 002.366 1.154l.519-.058c4.155-.577 5.367-1.039 5.656-1.385a4.8 4.8 0 001.27-2.135 26.231 26.231 0 00-.289-2.77c-.462-4.1-.577-5.887-.173-6.753a6.719 6.719 0 00.346-.866c.462-1.327 1.212-3.29 3.29-3.521a5 5 0 014.565 2.193 73.922 73.922 0 005.137 6.176c.4.346 1.039.866 1.674 1.327 1.558 1.154 3.347 2.539 4.04 3.809a28.557 28.557 0 011.5 4.329c.284.808.573 1.9.688 2.251zm.058.058zm-31.974-7.619zM94.71 90.318zm27.126-4.618zM145.5 74.678zm0-.115zm57.715-27.876zm-.866-1.5zm22.624-5.714zm5.367-3.117zm.058-.231c0 .058-.058.115-.058.173a.212.212 0 00.06-.174zm8.657-4.559z" class="cls-3" data-name="Path 11"/></g><path id="Cheese_Shadow" d="M1.391 76.3a10.181 10.181 0 00-1.1 7.561c1.1 4.271 2.77 10.158 6.522 12.062s8.2 4.5 12.813 4.271 16.276.346 18.7-.519 17.141-3.232 19.392-3.232c2.309 0 8.6-.115 11.139-1.154s9.119-4.906 11.485-5.829 7.965-3.578 9.408-4.04 8.484-3.578 10.5-4.675 9-5.656 11.2-6.926a52.161 52.161 0 007.157-5.829c.635-.635 2.77-3.059 2.886-4.444s21.989-7.561 21.989-7.561a46.871 46.871 0 0110.5-2.135 47.425 47.425 0 0012.293-2.655c1.558-.577 10.85-3.29 12.755-4.848s3.694-4.1 3.347-6-1.9-11.716-1.9-11.716l6.81.289 36.822-5.252L237.33 11.37l-1.616-6.58L209.338 0z" class="cls-1" transform="translate(32.029 46.703)"/><g id="Group_12" data-name="Group 12" transform="translate(28.129 43.009)"><path id="Cheese_Outline_1_" fill="#fae800" d="M1.391 76.3a10.181 10.181 0 00-1.1 7.561c1.1 4.271 2.77 10.158 6.522 12.062s8.2 4.5 12.813 4.271 16.276.346 18.7-.519 17.141-3.232 19.392-3.232c2.309 0 8.6-.115 11.139-1.154s9.119-4.906 11.485-5.829 7.965-3.578 9.408-4.04 8.484-3.578 10.5-4.675 9-5.656 11.2-6.926a52.161 52.161 0 007.157-5.829c.635-.635 2.77-3.059 2.886-4.444s21.989-7.561 21.989-7.561a46.871 46.871 0 0110.5-2.135 47.426 47.426 0 0012.293-2.655c1.558-.577 10.85-3.29 12.755-4.848s3.694-4.1 3.347-6-1.9-11.716-1.9-11.716l6.81.289 36.822-5.252L237.33 11.37l-1.616-6.58L209.338 0z" transform="translate(.899 .693)"/><path id="Path_12" d="M19.6 101.809c-3.982-.115-7.676-2.02-10.966-3.694a13.875 13.875 0 00-1.327-.635C3.1 95.345 1.425 89.054.328 84.841a10.863 10.863 0 011.212-8.253.717.717 0 01.46-.347L210 .057a1.125 1.125 0 01.468-.057l26.376 4.79a.867.867 0 01.693.635L239.153 12a.966.966 0 01-.231.866L225.7 25.164a1.16 1.16 0 01-.462.231l-36.822 5.252h-.173l-5.714-.231c.4 2.6 1.5 9.177 1.731 10.677.4 2.251-1.558 5.079-3.694 6.81-1.443 1.212-6.175 2.77-10.908 4.271-.981.289-1.731.577-2.078.693A53.15 53.15 0 01155 55.579a48.369 48.369 0 00-10.273 2.078c-9.581 2.713-19.969 6.06-21.47 7.1-.4 1.962-3.059 4.675-3.117 4.675a55.488 55.488 0 01-7.388 5.945c-1.039.577-3.059 1.847-5.194 3.232-2.424 1.5-4.964 3.117-6.06 3.694-2.02 1.154-9.234 4.271-10.677 4.79-.75.231-2.713 1.154-4.675 2.02-1.731.808-3.578 1.616-4.675 2.02-1.154.462-3.463 1.674-5.714 2.886-2.309 1.212-4.5 2.366-5.771 2.943C67.451 98 61.679 98.173 58.5 98.173c-2.078 0-16.8 2.366-19.1 3.174-1.616.577-6.175.577-12.409.519-2.539 0-4.963-.058-6.522 0a4.087 4.087 0 00-.869-.057zM2.868 77.684A9.156 9.156 0 002 84.322c.981 3.636 2.539 9.754 6.06 11.543.4.231.866.462 1.327.693 3.405 1.731 7.214 3.694 11.081 3.521 1.616-.058 4.04-.058 6.58 0 4.617.058 10.389.115 11.832-.4 2.6-.923 17.372-3.29 19.681-3.29 5.137 0 9.177-.4 10.85-1.1 1.212-.519 3.463-1.674 5.6-2.828 2.366-1.27 4.675-2.482 5.887-3 1.039-.4 2.828-1.212 4.559-1.962 2.078-.923 4.04-1.789 4.848-2.078 1.385-.462 8.426-3.578 10.389-4.617 1.039-.577 3.521-2.135 5.945-3.694 2.135-1.385 4.213-2.655 5.252-3.232a57.761 57.761 0 006.984-5.656c.866-.866 2.539-3 2.655-3.925.058-.75.115-1.443 11.658-5.021 5.425-1.731 10.908-3.29 10.966-3.29a50.777 50.777 0 0110.677-2.193 46.861 46.861 0 0012-2.6c.4-.115 1.154-.4 2.193-.693 2.943-.923 9-2.886 10.331-3.982 1.962-1.616 3.29-3.867 3.059-5.194-.346-1.847-1.9-11.6-1.9-11.716a.793.793 0 01.231-.693.956.956 0 01.693-.289l6.695.231 36.476-5.194 12.64-11.716-1.385-5.541-25.627-4.617z" class="cls-3" data-name="Path 12"/></g><path id="Onions_Shadow" d="M125.915 3.255s7.907 3.347 5.945 5.714c-1.962 2.424-4.675-2.6-6.984-.519-3.405 4.906-4.386 9.35-9.7 11.947S101.5 24.668 96.134 24.9c-5.367.173-10.735.923-13.736.923a28.521 28.521 0 01-6.698-1.155s1.558 4.271.173 6.233-.462 2.135-3.232 2.655a21.724 21.724 0 01-6.118 0s-.173 2.135-1.154 2.424-5.369 1.731-8.481 1.731a132.259 132.259 0 00-14.14 1.039c-1.731.4-8.6 1.212-10.273.231s-26.2-8.6-26.2-8.6l1.959 17.95s7.618.866 10.62.866 9.7-.346 11.2 1.1c1.5 1.5.866 6.926.346 7.849-.462.923-5.137 1.674-6.522 1.154-1.385-.462-8.253-.4-8.253-.4s-6.406-.462-9.061-1.731-5.198-2.374-6.41-4.279S5.29 28.823 5.29 28.823l27.3 3.521s2.539 1.962 4.559 1.154 4.675-.4 5.425-.577c.808-.173 6.06-.289 7.33-1.154a23.908 23.908 0 014.79-1.847s-4.5-1.385-5.137-2.02-7.1-3.867-6.753-5.945 14.544-.115 14.544-.115a72.572 72.572 0 009.35 1.212h5.252A37.911 37.911 0 0067.1 17.8c-2.943-2.655-.173-3.521-.75-4.1s6.81.4 6.81.4 1.039 2.886 7.676 4.1 14.429.519 21.355-1.154S115.18 13.3 117.835 10.3s2.655-3 2.655-7.445 2.885-2.37 2.885-2.37z" class="cls-1" transform="translate(143.444 52.913)"/><g id="Group_13" data-name="Group 13" transform="translate(141.865 47.061)"><path id="Onions_Outline_1_" fill="#e18dba" d="M128.627.44s9.985-1.1 11.312.173 2.539 5.483 1.847 6.81a4.014 4.014 0 01-3.117 2.539c-1.962.462-3.578-.346-6.81.289s-4.675-2.6-6.983-.519c-3.405 4.906-4.386 9.35-9.7 11.947s-13.678 4.271-19.046 4.5c-5.367.173-10.735.923-13.736.923A28.521 28.521 0 0175.7 25.95s1.558 4.271.173 6.233-.462 2.135-3.232 2.655a21.724 21.724 0 01-6.118 0s-.173 2.135-1.154 2.424-5.369 1.731-8.481 1.731a132.259 132.259 0 00-14.14 1.039c-1.731.4-8.6 1.212-10.273.231s-26.2-8.6-26.2-8.6l1.959 17.95s7.618.866 10.62.866 9.7-.346 11.2 1.1c1.5 1.5.866 6.926.346 7.849-.462.923-5.137 1.674-6.522 1.154-1.385-.462-8.253-.4-8.253-.4s-6.406-.462-9.061-1.731-5.198-2.374-6.41-4.279S5.29 30.105 5.29 30.105l27.3 3.521s2.539 1.962 4.559 1.154 4.675-.4 5.425-.577c.808-.173 6.06-.289 7.33-1.154a23.908 23.908 0 014.79-1.847s-4.5-1.385-5.137-2.02-7.1-3.867-6.753-5.945 14.544-.115 14.544-.115a72.573 72.573 0 009.35 1.212h5.252a37.91 37.91 0 00-4.85-5.252c-2.943-2.655-.173-3.521-.75-4.1s6.81.4 6.81.4 1.039 2.886 7.676 4.1 14.429.519 21.355-1.154 12.986-3.751 15.641-6.753 2.655-3 2.655-7.445 2.886-2.366 2.886-2.366z" transform="translate(.829 .818)"/><path id="Path_13" d="M25.627 62.436a3.73 3.73 0 01-1.27-.173 47.946 47.946 0 00-7.965-.346h-.058c-.289 0-6.579-.519-9.35-1.847l-.519-.231C3.926 58.627 1.5 57.472.232 55.51c-1.212-1.9 2.6-16.333 5.021-24.817a.871.871 0 01.923-.635l27.3 3.521a.524.524 0 01.4.173c.577.462 2.424 1.558 3.751 1.039a12.564 12.564 0 014.444-.577 5.635 5.635 0 001.1-.058 14.823 14.823 0 011.789-.173c1.5-.115 4.559-.346 5.252-.866a12.547 12.547 0 012.488-1.155 10.343 10.343 0 01-3-1.443c-.115-.115-.75-.462-1.27-.808-3.232-1.962-6.06-3.925-5.771-5.887.115-.75.462-2.943 15.525-.808a76.354 76.354 0 009.234 1.212h3.405a31.366 31.366 0 00-3.636-3.694c-2.251-2.02-1.731-3.521-1.039-4.559a.794.794 0 01.058-.635c.289-.577.462-.981 7.734.058a.876.876 0 01.693.577s1.1 2.424 7.041 3.521 13.39.693 21.008-1.154c8.08-1.9 13.044-4.04 15.179-6.464 2.424-2.713 2.424-2.713 2.424-6.868 0-1.847.462-3 1.443-3.521a2.763 2.763 0 012.482.231l4.957-1.27h.115c3.117-.346 10.5-.981 12 .4 1.558 1.443 2.943 6.06 2.02 7.849a4.642 4.642 0 01-3.694 3 10.161 10.161 0 01-2.943.115 13.555 13.555 0 00-3.925.173 6.245 6.245 0 01-4.04-.693c-1.212-.519-1.674-.693-2.482-.058a41.694 41.694 0 00-2.366 3.925c-1.847 3.232-3.578 6.291-7.561 8.253-5.6 2.713-14.14 4.386-19.392 4.559-2.655.115-5.367.346-7.734.519-2.424.231-4.5.4-6.06.4a24.149 24.149 0 01-5.425-.808c.4 1.558.693 3.982-.346 5.483-.346.519-.519.866-.693 1.154-.577 1.212-1.039 1.443-3.059 1.789a25.5 25.5 0 01-5.541.115 2.852 2.852 0 01-1.616 2.309l-.346.115a32.694 32.694 0 01-8.369 1.674c-3 0-12.293.635-13.967.981-.808.173-8.715 1.443-10.908.115-1.1-.635-14.948-5.079-24.76-8.08l1.738 15.942c1.962.231 7.445.808 9.869.808h1.558c4.79-.058 8.83 0 10.273 1.385 1.9 1.9 1.1 7.734.519 8.83-.691 1.213-4.212 1.79-6.405 1.732zm-4.444-2.193a17.176 17.176 0 013.809.4c1.1.4 4.848-.231 5.483-.808.4-.923.866-5.714-.231-6.81-1.039-1.039-6.406-.923-9-.866h-1.562c-3 0-10.389-.866-10.735-.866a.858.858 0 01-.75-.75L6.35 33.463C3.637 43.159 1.329 53.2 1.791 54.644c.981 1.5 3.174 2.539 5.483 3.636l.519.231c2.366 1.154 8.2 1.616 8.715 1.674.635 0 2.712 0 4.675.058zm-19.508-5.6zm7.272-22.45c5.829 1.789 23.2 7.272 24.76 8.138 1.27.75 7.5.115 9.638-.346a137.041 137.041 0 0114.371-1.039 29.5 29.5 0 007.849-1.616l.346-.115a3.808 3.808 0 00.577-1.674.635.635 0 01.346-.577.651.651 0 01.635-.173 20.124 20.124 0 005.887 0c1.5-.289 1.5-.289 1.789-.866a10.107 10.107 0 01.808-1.385c.808-1.154.231-3.925-.289-5.425a.806.806 0 01.173-.866.831.831 0 01.866-.231 27.6 27.6 0 006.522 1.154c1.443 0 3.463-.173 5.829-.4s5.079-.462 7.792-.519c5.079-.173 13.332-1.789 18.7-4.386 3.521-1.731 5.021-4.271 6.868-7.5.75-1.327 1.558-2.713 2.539-4.155.058-.058.058-.115.115-.173 1.731-1.5 3.174-.866 4.386-.289a4.713 4.713 0 003 .577 14.665 14.665 0 014.386-.173 8.426 8.426 0 002.424-.058 3.036 3.036 0 002.539-2.078c.462-.923-.519-4.733-1.674-5.771-.75-.577-6.06-.462-10.62.058l-5.252 1.327a1.154 1.154 0 01-.75-.115c-.289-.173-.808-.4-1.039-.289s-.462.693-.462 1.962c0 4.675-.058 4.906-2.886 8.022-2.424 2.713-7.561 4.963-16.1 6.984-7.849 1.9-15.583 2.309-21.7 1.154-5.541-1.039-7.445-3.174-8.08-4.155a50.164 50.164 0 00-5.425-.519 2.179 2.179 0 01-.289.462c-.346.519-.693.981.75 2.309a39.941 39.941 0 014.963 5.367.837.837 0 01-.635 1.385h-5.249a72.1 72.1 0 01-9.523-1.212c-5.656-.808-12.351-1.154-13.563-.519.115.693 1.731 2.02 4.964 3.982a6.862 6.862 0 011.558 1.1 26.658 26.658 0 004.79 1.847.938.938 0 01.635.866.866.866 0 01-.635.808 24.044 24.044 0 00-4.5 1.731c-.981.693-3.347.923-6.118 1.154a13.637 13.637 0 00-1.5.173 5.423 5.423 0 01-1.5.115 11.113 11.113 0 00-3.809.462c-2.135.808-4.5-.635-5.194-1.154z" class="cls-3" data-name="Path 13"/></g><path id="Bacon_Shadow" d="M0 76.992s2.886 13.794 6.637 16.8 13.794 8.253 20.143 7.445 31.743-5.945 37-11.312 12.635-9.759 15.92-15.184 35.322-21.181 35.322-21.181L135.8 39.246l30.589-6.118s10.966-1.443 15.872-1.154c4.848.289 10.908 1.443 13.332-.923s10.562-11.37 10.85-17.2 4.906-5.6 5.6-6 3.751 0 3.751 0 .346-3.059-.923-4.213A59.603 59.603 0 00210.6.4L199 0 72.721 41.093 26.78 61.64z" class="cls-1" transform="translate(38.326 34.467)"/><g id="Group_14" data-name="Group 14" transform="translate(36.757 29.908)"><path id="Bacon_Outline_1_" fill="#c95b44" d="M0 76.992s2.886 13.794 6.637 16.8 13.794 8.253 20.143 7.445 31.743-5.945 37-11.312 12.635-9.759 15.92-15.184 35.322-21.181 35.322-21.181L135.8 39.246l30.589-6.118s10.966-1.443 15.872-1.154c4.848.289 10.908 1.443 13.332-.923s10.562-11.37 10.85-17.2 4.906-5.6 5.6-6 3.751 0 3.751 0 .346-3.059-.923-4.213A59.603 59.603 0 00210.6.4L199 0 72.721 41.151 26.78 61.7z" transform="translate(.819 .808)"/><path id="Path_14" d="M25.752 103.021c-6.637-.231-15.41-5.021-18.815-7.734C3.012 92.171.126 78.608.011 78.031a.948.948 0 01.4-.923l26.78-15.352a.057.057 0 00.058-.058l45.945-20.547a.057.057 0 00.058-.058L199.532.058A.52.52 0 01199.82 0l11.6.4a.767.767 0 01.462.173 38.89 38.89 0 014.329 3.29c1.558 1.443 1.27 4.617 1.212 4.963a.635.635 0 01-.346.577.826.826 0 01-.635.173 13.105 13.105 0 00-3.232-.115 7.551 7.551 0 01-.866.289c-1.5.289-4.04.808-4.271 5.021-.289 5.945-8.08 14.833-11.081 17.776-2.251 2.193-6.753 1.789-11.139 1.385a51.12 51.12 0 00-2.828-.231c-4.733-.289-15.583 1.154-15.7 1.154l-30.358 6.06-20.662 14.2c-.058 0-.058.058-.115.058-8.83 4.329-32.32 16.564-34.975 20.893-2.135 3.521-5.714 6.464-9.523 9.581a78.841 78.841 0 00-6.522 5.771c-5.656 5.771-32.263 10.908-37.515 11.543-.576.06-1.211.06-1.903.06zM1.8 78.261c.924 4.156 3.463 13.506 6.176 15.639 3.809 3 13.563 8.022 19.508 7.272 6.81-.866 31.512-6 36.476-11.081a82.691 82.691 0 016.695-5.887c3.694-3.059 7.214-5.887 9.177-9.119 3.347-5.541 33.648-20.547 35.61-21.528L136.161 39.3a.82.82 0 01.346-.115l30.593-6.114c.519-.058 11.2-1.443 16.1-1.154.923.058 1.9.173 2.886.231 3.809.346 8.138.75 9.812-.923 2.655-2.6 10.331-11.254 10.562-16.622.289-5.483 4.155-6.291 5.656-6.58.173-.058.4-.058.462-.115a7.272 7.272 0 013.29-.173 3.87 3.87 0 00-.693-2.6c-1.27-1.039-2.6-2.078-3.982-3l-11.2-.4L73.944 42.767 28.06 63.256z" class="cls-3" data-name="Path 14"/></g><path id="Ham_Shadow" d="M8.107 88.08c-2.135-.173-4.04-3.232-6.695-7.561s-.75-11.6-.75-11.6l7.445-4.848S62.647 49.123 63.4 49.123s.808 5.945 6.695 7.445 14.2.346 17.661-1.443 12.236-2.655 15.987-4.906 13.967-3 13.967-3 5.367.289 7.734 3 1.5 6.753 1.5 6.753.115 3.578-8.2 8.2c-8.022 4.5-16.564 4.5-22.336 4.5h-.577c-5.714 0-10.5-2.135-14.14-2.6s-7.5-1.616-14.544-2.6a24.467 24.467 0 00-12.7 1.731v4.213a15.161 15.161 0 01-6.695 8.2c-5.252 3-11.2 3.751-14.082 4.213s-10.735 3.636-15.064 5.137a13.453 13.453 0 01-4.559.693 41.093 41.093 0 01-5.94-.579zm125.126-37.053c-3.578-3.059-8.946-3.347-8.946-3.347l-5.6-6.349V39.08s0-.75 1.385-3 3.405-2.482 3.867-3.174 4.155-2.77 8.946-3.117 8.369-2.309 11.2-3.347 8.311-4.906 11.774-6.753 10.85-2.193 13.678-.462c2.77 1.731 5.829 5.945 5.945 7.965s-.115 8.542-6.695 9.7-9.523-2.424-12.293-2.6-9.061.462-10.85 2.6 0 4.5 0 10.446a8.171 8.171 0 01-6.176 8.08h-.115c-.984-.062-2.653-1.39-6.12-4.391zm78.435-36.591c.115-1.731 2.309-5.425 2.6-7.849s3.694-5.656 5.31-6.349a3.94 3.94 0 013.29.346s-1.616 2.6 3.347.866S234.349.7 237.177.7a4.928 4.928 0 014.04 1.789s2.6 5.829 1.847 8.946-4.213 4.1-7.849 5.252-12.062.115-14.486.058-9.408 1.443-9.408 1.443.231-2.021.346-3.752z" class="cls-1" transform="translate(28.603 37.634)"/><g id="Group_15" data-name="Group 15" transform="translate(26.997 34.503)"><path id="Ham_Outline_1_" fill="#f16149" d="M8.107 88.08c-2.135-.173-4.04-3.232-6.695-7.561s-.75-11.6-.75-11.6l7.445-4.848S62.647 49.123 63.4 49.123s.808 5.945 6.695 7.445 14.2.346 17.661-1.443 12.236-2.655 15.987-4.906 13.967-3 13.967-3 5.367.289 7.734 3 1.5 6.695 1.5 6.695.115 3.578-8.2 8.2c-8.022 4.5-16.564 4.5-22.336 4.5h-.577c-5.714 0-10.5-2.135-14.14-2.6s-7.5-1.616-14.544-2.6a24.467 24.467 0 00-12.7 1.731v4.213a15.161 15.161 0 01-6.695 8.2c-5.252 3-11.2 3.751-14.082 4.213s-10.735 3.636-15.064 5.137a13.453 13.453 0 01-4.559.693 35.258 35.258 0 01-5.94-.521zm125.126-37.053c-3.578-3.059-8.946-3.347-8.946-3.347l-5.6-6.349V39.08s0-.75 1.385-3 3.405-2.482 3.867-3.174 4.155-2.77 8.946-3.117 8.369-2.309 11.2-3.347 8.311-4.963 11.774-6.753 10.85-2.193 13.678-.462 5.829 5.945 5.945 7.965-.115 8.542-6.695 9.7c-6.637 1.154-9.523-2.424-12.293-2.6s-9.061.462-10.85 2.6 0 4.5 0 10.446a8.171 8.171 0 01-6.176 8.08h-.115c-.984-.004-2.653-1.39-6.12-4.391zm78.492-36.591c.115-1.731 2.309-5.425 2.6-7.849.346-2.424 3.694-5.656 5.31-6.349a3.94 3.94 0 013.29.346s-1.616 2.6 3.347.866c4.903-1.731 8.135-.75 10.963-.75a4.928 4.928 0 014.04 1.789s2.6 5.829 1.847 8.946-4.213 4.1-7.849 5.252c-3.636 1.1-12.062.115-14.486.058s-9.465 1.443-9.465 1.443.23-2.021.403-3.752z" transform="translate(.856 .881)"/><path id="Path_15" d="M14.215 90.461A32.375 32.375 0 0110.348 90c-.577-.115-1.1-.173-1.5-.231-2.482-.231-4.448-3.174-7.33-7.969C-1.253 77.245.594 69.857.71 69.511a.84.84 0 01.346-.519L8.5 64.143c.058-.058.173-.058.231-.115C29.163 58.43 63.5 49.08 64.254 49.08c.808 0 1.1.75 1.385 1.674.635 1.789 1.674 4.79 5.541 5.829 6 1.558 13.967.231 17.026-1.385A33.658 33.658 0 0195.593 53c3.29-.75 6.637-1.558 8.542-2.655 3.867-2.309 13.909-3.059 14.313-3.117h.115a17.073 17.073 0 015.425 1.27l-5.137-5.829a1.025 1.025 0 01-.231-.577v-2.247c0-.289.173-1.212 1.5-3.463a7.632 7.632 0 013.29-2.886 2.006 2.006 0 00.635-.4c.693-.981 4.733-3.117 9.581-3.521a27.581 27.581 0 008.83-2.482c.75-.289 1.443-.577 2.135-.866a49.366 49.366 0 006.81-3.809c1.789-1.1 3.463-2.135 4.848-2.886 3.521-1.847 11.312-2.424 14.486-.462 2.943 1.847 6.233 6.291 6.349 8.657.115 2.135-.058 9.292-7.445 10.62a14.859 14.859 0 01-9.812-1.616 9.182 9.182 0 00-2.713-.981c-3.059-.231-8.657.577-10.158 2.309-.808.923-.693 1.9-.346 4.1a35.37 35.37 0 01.519 5.771 9.038 9.038 0 01-6.81 8.946h-.289c-1.327 0-2.886-1.327-6.637-4.559-2.655-2.309-6.522-2.943-7.907-3.117a6.051 6.051 0 011.27 1.154c2.424 2.77 1.847 6.753 1.731 7.388-.058.808-.635 4.386-8.657 8.888-8.253 4.617-16.968 4.617-22.74 4.617h-.577a38.848 38.848 0 01-9.985-1.616 39.813 39.813 0 00-4.271-.981 68.834 68.834 0 01-5.079-.923c-2.539-.519-5.425-1.1-9.408-1.674a23.88 23.88 0 00-11.716 1.443v3.636a.52.52 0 01-.058.289 16.161 16.161 0 01-7.1 8.657C44 82.9 38.34 83.767 35.339 84.286l-.808.115c-1.9.289-6.233 1.9-10.1 3.347-1.789.635-3.521 1.27-4.848 1.731a13.753 13.753 0 01-4.848.75c-.058.232-.289.232-.52.232zM9.021 88.1c.462.058.981.115 1.616.231a28.22 28.22 0 004.213.4 13.506 13.506 0 004.271-.693c1.327-.462 3-1.1 4.79-1.731A86.4 86.4 0 0134.3 82.9l.808-.115c3.117-.519 8.311-1.327 12.986-3.982a14.372 14.372 0 006.291-7.618v-4.1a.977.977 0 01.519-.808 25.623 25.623 0 0113.159-1.787c4.04.577 7.1 1.212 9.523 1.674 1.847.4 3.463.693 4.963.923a40.069 40.069 0 014.5.981 36.508 36.508 0 009.523 1.558h.577c5.6 0 14.082 0 21.932-4.386 7.561-4.213 7.792-7.445 7.792-7.445v-.173c0-.058.693-3.636-1.327-6-1.962-2.251-6.522-2.655-7.041-2.655-.808.058-10.1.808-13.505 2.828-2.135 1.27-5.656 2.078-9.061 2.886a32.089 32.089 0 00-6.984 2.078c-3.751 1.962-12.178 3.059-18.3 1.5-4.79-1.212-6.118-5.079-6.753-6.926-.058-.115-.115-.289-.173-.4C59 52.081 23.392 61.835 9.194 65.7l-7.042 4.561c-.289 1.385-1.385 7.157.693 10.62C5.1 84.4 7.231 87.922 9.021 88.1zm125.645-36.827c2.424 2.078 4.733 4.1 5.483 4.155a7.315 7.315 0 005.425-7.214 32.863 32.863 0 00-.519-5.541c-.346-2.251-.635-3.925.693-5.483 2.078-2.424 8.657-3.117 11.543-2.886a9.271 9.271 0 013.347 1.154 13.379 13.379 0 008.773 1.5c5.771-1.039 6.118-6.522 6-8.83-.115-1.674-2.886-5.656-5.541-7.272-2.424-1.5-9.465-1.212-12.813.519-1.327.693-3 1.731-4.733 2.828a47.487 47.487 0 01-7.1 3.982c-.635.231-1.327.519-2.078.808a29.114 29.114 0 01-9.35 2.6c-4.444.346-7.849 2.251-8.311 2.77a3.617 3.617 0 01-1.27.923 5.863 5.863 0 00-2.6 2.193 8.3 8.3 0 00-1.27 2.655v1.847l5.137 5.829a16.219 16.219 0 019.177 3.463zm77.511-31.339a.741.741 0 01-.577-.231.886.886 0 01-.289-.75s.231-2.02.346-3.694a15.31 15.31 0 011.212-3.751 20.6 20.6 0 001.385-4.155c.346-2.77 3.982-6.233 5.829-7.041a4.814 4.814 0 014.1.4.91.91 0 01.289 1.212c0 .058-.058.058-.058.115a7.056 7.056 0 002.366-.577 19.2 19.2 0 019.12-.92c.75.058 1.443.115 2.135.115a5.66 5.66 0 014.675 2.078c.058.058.115.115.115.173.115.231 2.713 6.118 1.9 9.523-.866 3.521-4.5 4.675-8.08 5.771l-.346.115c-2.943.923-8.657.519-12.409.231a54.506 54.506 0 01-2.366-.173c-2.309-.058-9.119 1.443-9.177 1.443-.054.058-.112.116-.17.116zm9.581-18.18a2.614 2.614 0 00-.923.173c-1.443.635-4.559 3.636-4.79 5.656a20 20 0 01-1.5 4.559 15.11 15.11 0 00-1.1 3.232c-.058.866-.173 1.847-.231 2.6a50.25 50.25 0 018.426-1.212 23.452 23.452 0 012.424.173c3.405.231 9.119.635 11.774-.173l.346-.115c3.405-1.039 6.291-1.9 6.926-4.5.519-2.309-1.039-6.637-1.789-8.311a4.084 4.084 0 00-3.232-1.385c-.75 0-1.5-.058-2.309-.115a18.229 18.229 0 00-8.426.866c-2.424.866-3.751.866-4.386.058a1.678 1.678 0 01-.289-1.27 2.42 2.42 0 00-.921-.236zm-9.177 13.563z" class="cls-3" data-name="Path 15"/></g><path id="Top_Bun_Shadow" d="M41.444 68.044c1.385-.923 4.213-2.886 6.464-2.886s6.81.231 8.2-.346 8.426-5.6 10.1-6.176 12.293-3.29 13.621-3.809S99.5 46.343 99.5 46.343s4.5-3.636 5.945-4.213 11.081-4.271 12.351-4.5 9.523-3.521 10.5-3.405 35.726-11.485 36.938-11.774 13.159-5.541 14.717-5.771c1.558-.173 28.453-8.773 29.781-9.177 1.385-.4 8.542-3.405 10.042-3.29s6.176.115 6.926-.4c.808-.462-3.405-1.385-3-3.751S-1.15 71.045 0 73.008s1.385 7.214 2.251 4.848 5.718-3.175 7.049-3.463 3.694-2.251 5.829-1.962a56.1 56.1 0 007.961-.231c1.154-.058 7.157-2.193 8.888-2.309s4.79.231 6.233.115c1.444-.173 1.848-.981 3.233-1.962z" class="cls-1" transform="translate(24.701 30.602)"/><g id="Group_16" data-name="Group 16"><path id="Top_Bun_Outline_1_" d="M63.086 94.824c1.385-.923 4.213-2.886 6.464-2.886s6.81.231 8.2-.346 8.426-5.6 10.1-6.175 12.293-3.29 13.621-3.809 19.681-8.484 19.681-8.484 4.5-3.636 5.945-4.213 11.081-4.271 12.351-4.5 9.523-3.521 10.5-3.405 35.726-11.485 36.938-11.774 13.159-5.541 14.717-5.771 28.453-8.773 29.781-9.177 8.6-3.405 10.042-3.29 7.5-.289 8.253-.75 3.982-1.674 4.386-3.982.462-2.02-.462-4.213-6.233-8.657-7.907-9.638-10.85-9.465-22.163-11.2-12-1.1-12-1.1-12.182.176-14.433.58-11.024 1.443-16.968 3.578-23.721 7.33-23.721 7.33l-35.668 10.793s-9.927 2.655-11.6 4.1-9.754-.462-14.256 0-16.045 2.02-21.008 5.079-21.932 7.445-21.932 7.445-23.606 6.404-27.588 8.424-9.119 4.1-12.928 7.792-6.522 9.638-8.311 16.16S-.343 87.032.061 91.476s3.059 15.468 4.213 17.43 7.1 12.178 7.1 12.178 1.385-3.809 3.694-4.5 3.578-.462 4.1-1.1 5.425-6.406 6.291-8.715 4.155-5.425 5.483-5.714 3.694-2.251 5.829-1.962a56.1 56.1 0 007.965-.231c1.154-.058 7.157-2.193 8.888-2.309s4.79.231 6.233.115 1.843-.921 3.229-1.844z" class="cls-15" transform="translate(.808 .879)"/><path id="Path_16" d="M12.181 122.829a.8.8 0 01-.693-.4c-.058-.115-5.945-10.216-7.1-12.178C3.062 108.054.465 96.915.061 92.471c-.4-4.559 1.27-13.794 3.059-20.373 1.962-7.33 4.906-13.044 8.542-16.564 3.174-3.117 7.214-5.079 10.793-6.81.808-.4 1.616-.808 2.366-1.154 4.04-2.078 26.78-8.253 27.761-8.542.173-.058 16.968-4.386 21.816-7.33 5.31-3.232 17.661-4.79 21.355-5.194a38.392 38.392 0 017.157.231c2.539.231 6 .577 6.637-.058 1.731-1.5 10.273-3.809 11.947-4.271L157.1 11.612c.173-.058 17.892-5.194 23.721-7.272 5.021-1.789 12.062-2.886 15.468-3.405.693-.115 1.27-.173 1.616-.231C200.1.3 210.894.127 212.336.127c.866-.231 3.463-.289 12.236 1.1C234.153 2.724 242.233 8.9 245.7 11.5c.635.519 1.154.866 1.385 1.039 1.847 1.1 7.214 7.792 8.253 10.042l.058.173c.866 1.9.923 2.135.577 3.925l-.115.635c-.4 2.366-2.886 3.636-4.271 4.329-.231.115-.4.231-.519.289-1.1.693-7.618.981-8.773.923-.866-.058-5.079 1.558-7.1 2.309-1.212.462-2.193.808-2.655.981-.346.115-2.655.808-5.6 1.731-14.256 4.5-23.317 7.33-24.356 7.445-.808.115-5.945 2.251-9.35 3.636-3 1.27-4.733 1.962-5.252 2.078-.346.115-4.386 1.385-9.061 2.943-23.49 7.734-27.53 8.946-28.165 8.888a52.733 52.733 0 00-5.714 1.9 36.464 36.464 0 01-4.559 1.5c-.923.173-8.08 2.828-10.735 3.867-.693.289-1.212.462-1.5.577a42.053 42.053 0 00-5.714 4.04c-.058.058-.115.115-.173.115-.75.346-18.353 8.022-19.739 8.484-.693.231-3.347.981-6.406 1.789-3 .808-6.406 1.731-7.214 2.02a62.052 62.052 0 00-5.656 3.405 43.027 43.027 0 01-4.446 2.716c-1.212.519-3.925.519-7.041.462h-1.5c-1.847 0-4.386 1.731-5.771 2.6l-.231.115a8.139 8.139 0 00-1.039.808 4.268 4.268 0 01-2.6 1.27 28.882 28.882 0 01-3.059-.058 30.606 30.606 0 00-3.174-.058 38.856 38.856 0 00-4.906 1.27 26.816 26.816 0 01-3.982 1.039c-.231 0-.577.058-1.039.058a41.977 41.977 0 01-7.1.173c-1.1-.173-2.424.519-3.578 1.1a7.442 7.442 0 01-1.962.808c-.981.231-4.04 3-4.848 5.137-.75 1.962-3.867 5.887-6.349 8.83l-.115.115a3.309 3.309 0 01-2.135.866 20.359 20.359 0 00-2.366.519c-1.558.462-2.77 3-3.117 3.925a.982.982 0 01-.75.577zm86.168-94.653a18 18 0 00-2.539.058c-3.578.4-15.641 1.9-20.662 4.963s-21.528 7.33-22.22 7.5c-.231.058-23.548 6.406-27.415 8.369q-1.125.606-2.424 1.212c-3.463 1.674-7.33 3.578-10.331 6.464-3.405 3.293-6.175 8.718-8.08 15.758-1.731 6.464-3.405 15.41-3 19.8.4 4.444 3 15.237 4.1 17.026.866 1.5 4.617 7.849 6.291 10.735.693-1.27 1.9-2.943 3.578-3.405 1.1-.289 1.962-.462 2.6-.577a5.582 5.582 0 001.1-.231l.115-.115c3.347-3.982 5.541-7.041 6-8.311.981-2.6 4.444-5.887 6.118-6.233a6.46 6.46 0 001.558-.693 7.965 7.965 0 014.617-1.27 43.8 43.8 0 006.695-.173 8.618 8.618 0 011.1-.058 30.3 30.3 0 003.578-.981 40.8 40.8 0 015.31-1.385c.923-.058 2.193 0 3.405.058a24.427 24.427 0 002.828.058c.693-.058.981-.346 1.616-.866a13.028 13.028 0 011.212-.923l.231-.115c1.616-1.1 4.329-2.943 6.695-2.943h1.5c2.02.058 5.425.058 6.349-.346.577-.231 2.366-1.443 4.155-2.6a40.138 40.138 0 016-3.578c.866-.289 4.155-1.212 7.33-2.078 2.77-.75 5.656-1.5 6.291-1.731 1.039-.346 13.159-5.656 19.508-8.426.75-.635 4.617-3.694 6.118-4.271.231-.115.75-.289 1.443-.577 5.945-2.251 10.158-3.809 11.081-3.982.462-.058 2.482-.808 4.271-1.443 4.1-1.443 5.714-2.02 6.406-1.962 1.443-.231 18.411-5.771 27.53-8.773 5.771-1.9 8.773-2.886 9.177-3s2.77-1.1 5.021-2.02c5.137-2.135 8.83-3.636 9.812-3.751 1.154-.173 16.622-5.021 24.009-7.388 3.174-.981 5.252-1.674 5.656-1.789s1.385-.462 2.482-.923c3.751-1.443 6.695-2.482 7.849-2.424a38.272 38.272 0 007.792-.693c.115-.058.346-.173.635-.346 1.1-.519 3.059-1.558 3.347-3.059l.115-.635c.231-1.385.231-1.385-.462-2.886l-.058-.173c-.923-2.078-6.118-8.426-7.561-9.234a14.2 14.2 0 01-1.558-1.154c-3.347-2.539-11.2-8.542-20.316-9.927-9.292-1.443-11.2-1.212-11.485-1.154a.732.732 0 01-.346.058c-4.213.058-12.582.289-14.256.577-.4.058-.923.173-1.674.231-3.347.519-10.273 1.558-15.121 3.29-5.893 2.13-23.665 7.269-23.842 7.324l-35.61 10.793c-3.809.981-10.158 2.943-11.254 3.925-1.154 1.039-3.809.866-7.965.462a28.161 28.161 0 01-4.445-.059zm52.521 32.84zM212.683 1.8zm.289-.173zm0 0zm0 0zm0 0zm0 0z" class="cls-3" data-name="Path 16"/></g><path id="Top_Bun_Detail" d="M0 1.5s9.638 2.078 12 4.618 4.617 2.539 4.617 2.539-3.578-4.559-7.1-6A44.7 44.7 0 002.309 0z" class="cls-3" transform="translate(108.911 26.56)"/><g id="Group_17" data-name="Group 17" transform="translate(0 48.611)"><path id="Top_Bun_End_1_" d="M63.086 46.272c1.385-.923-1.847-.693-1.789-2.135a29.117 29.117 0 00-.346-6.349c-.462-3.059-5.541-8.253-7.849-14.2S38.9 5.237 38.9 5.237 28.341-1.689 24.359.389c-3.982 2.02-9.119 2.6-12.928 6.349C7.622 10.431 4.909 16.376 3.12 22.9S-.343 38.538.061 42.982 3.12 58.45 4.274 60.412s7.1 12.178 7.1 12.178 1.385-3.809 3.694-4.5 3.578-.462 4.1-1.1c.462-.577 5.425-6.406 6.291-8.715s4.155-5.425 5.483-5.714 3.694-2.251 5.829-1.962a56.1 56.1 0 007.965-.231c1.154-.058 7.157-2.193 8.888-2.309s4.79.231 6.233.115 1.843-.974 3.229-1.902z" class="cls-16" transform="translate(.808 .82)"/><path id="Path_17" d="M12.181 74.218a.8.8 0 01-.693-.4c-.058-.115-5.945-10.216-7.1-12.178C3.062 59.443.465 48.3.061 43.86c-.4-4.559 1.27-13.794 3.059-20.373 1.962-7.33 4.906-13.044 8.542-16.564 2.655-2.539 5.771-3.694 8.83-4.733A26.352 26.352 0 0024.763.458c4.329-2.193 14.313 4.155 15.41 4.906.058.058.115.058.173.115.462.519 12 12.582 14.371 18.584a45.723 45.723 0 004.559 8.08c1.674 2.482 3.059 4.617 3.29 6.291a35.061 35.061 0 01.4 6.522c.058.173.635.346.866.462.519.231 1.212.462 1.27 1.154a1.482 1.482 0 01-.75 1.27 8.139 8.139 0 00-1.039.808 4.268 4.268 0 01-2.6 1.27 28.882 28.882 0 01-3.059-.058 30.606 30.606 0 00-3.174-.058 38.856 38.856 0 00-4.906 1.27 26.816 26.816 0 01-3.974 1.039c-.231 0-.577.058-1.039.058a41.977 41.977 0 01-7.1.173c-1.1-.173-2.424.519-3.578 1.1a7.442 7.442 0 01-1.962.808c-.981.231-4.04 3-4.848 5.137-.75 1.962-3.867 5.887-6.349 8.83l-.115.115a3.309 3.309 0 01-2.135.866 20.359 20.359 0 00-2.366.519c-1.558.462-2.77 3-3.117 3.925a.982.982 0 01-.75.577zM27.187 1.67a3.38 3.38 0 00-1.616.289 33.209 33.209 0 01-4.5 1.789c-2.886 1.039-5.829 2.078-8.2 4.386-3.405 3.29-6.175 8.715-8.08 15.756-1.731 6.464-3.405 15.41-3 19.8.4 4.444 3 15.237 4.1 17.026.866 1.5 4.617 7.849 6.291 10.735.693-1.27 1.9-2.943 3.578-3.405 1.1-.289 1.962-.462 2.6-.577a5.582 5.582 0 001.1-.231l.115-.115c3.347-3.982 5.541-7.041 6-8.311.981-2.6 4.444-5.887 6.118-6.233a6.46 6.46 0 001.558-.693 7.965 7.965 0 014.617-1.27 43.8 43.8 0 006.695-.173 8.618 8.618 0 011.1-.058 30.3 30.3 0 003.578-.981 40.8 40.8 0 015.31-1.385c.923-.058 2.193 0 3.405.058a24.427 24.427 0 002.828.058c.693-.058.981-.346 1.616-.866a3.734 3.734 0 00.519-.462 2.071 2.071 0 01-1.5-1.962 27.556 27.556 0 00-.346-6.175c-.173-1.327-1.5-3.347-3.059-5.6a40.884 40.884 0 01-4.733-8.426C51.139 19.158 40.288 7.73 39.307 6.692 35.9 4.614 30.419 1.786 27.187 1.67zm36.707 45.422z" class="cls-3" data-name="Path 17"/></g></g></g><g id="Cable" transform="translate(465.008 216.796)"><g id="Plug" transform="translate(.406 13.579)"><path id="Plug_point_shadow" d="M8.993 46.242c-1.27-.75-2.886-1.847-2.366-2.713l3.521-7.33 5.31 3.636-3.464 7.215a.212.212 0 01-.058.173.82.82 0 01-.346.115 7.511 7.511 0 01-2.597-1.096z" class="cls-1" transform="translate(-2.142 -16.022)"/><g id="Group_18" data-name="Group 18" transform="translate(2.992 17.754)"><path id="Plug_point_1_" d="M7.693 43.642c-1.27-.75-2.886-1.847-2.366-2.713L8.848 33.6l5.31 3.636-3.464 7.214a.212.212 0 01-.058.173.82.82 0 01-.346.115 7.511 7.511 0 01-2.597-1.096z" class="cls-11" transform="translate(-4.585 -32.677)"/><path id="Path_18" d="M9.82 44.582H9.7a7.159 7.159 0 01-2.828-1.154c-1.039-.635-3.405-2.02-2.6-3.521L8.088 32l6.233 4.271-3.636 7.561c-.058.115-.115.289-.173.4l-.058.058a.735.735 0 01-.634.292zM8.608 33.789l-3.29 6.695c0 .058-.231.519 2.135 1.962h.058a5.727 5.727 0 002.189.924l3.232-6.695z" class="cls-3" data-name="Path 18" transform="translate(-4.114 -32)"/></g><g id="Group_19" data-name="Group 19" transform="translate(0 .671)"><path id="Plug_Body_1_" d="M6.1 28.733C2.979 26.828-1 24.116.151 21.98L8.981 3.8l13.159 9-8.6 17.834a.524.524 0 01-.173.4 1.271 1.271 0 01-.923.289c-1.385.007-3.867-1.09-6.344-2.59z" class="cls-6" transform="translate(.64 -2.992)"/><path id="Path_19" d="M12.129 31.315h-.173c-1.847 0-4.906-1.674-6.58-2.655-3.405-2.02-7.1-4.617-6.349-7.1l.173-.46L8.32 2.4l14.08 9.638-8.715 18.18a1.281 1.281 0 01-.289.635l-.058.058a1.917 1.917 0 01-1.209.404zm-.115-1.154a.622.622 0 00.462-.115v-.116l.058-.115 8.366-17.43L8.782 4.074.471 21.215l-.231.462c-.693 1.27 1.27 3.29 5.771 6 2.6 1.558 4.848 2.482 6 2.482z" class="cls-3" data-name="Path 19" transform="translate(1.07 -2.4)"/></g><g id="Group_20" data-name="Group 20" transform="translate(8.874)"><path id="Ellipse_1_" d="M15.456 3.086c1.212-2.193 5.656.4 8.773 2.251s5.252 5.945 4.386 6.81-3.463-.4-6.58-2.251-7.791-4.674-6.579-6.81z" class="cls-22" transform="translate(-14.709 -1.665)"/><path id="Path_20" d="M27.4 12.586c-1.327 0-3.347-1.039-6.06-2.655l-.058-.058c-3.463-2.078-8.2-4.906-6.695-7.561a2.029 2.029 0 011.27-.981C17.823.812 21 2.544 24.114 4.39c2.6 1.558 4.617 4.559 4.848 6.349a1.8 1.8 0 01-.346 1.385 1.606 1.606 0 01-1.216.462zM15.514 2.948c-.923 1.674 3.751 4.5 6.291 6l.058.058c3.405 2.02 5.425 2.828 5.887 2.366a1.187 1.187 0 000-.519 9.442 9.442 0 00-4.271-5.367c-1.962-1.212-5.714-3.405-7.33-2.943-.289-.058-.462.115-.635.4z" class="cls-3" data-name="Path 20" transform="translate(-14.305 -1.238)"/></g></g><path id="Cord_crease" d="M14.694 73.318l-1.443-.923c-3.059.693-7.157-2.193-8.6-3.521-1.443-1.385-1.962-2.77-2.6-3.174L.9 66.046s2.713 4.79 5.6 6.406a9.8 9.8 0 004.79 1.616 4.673 4.673 0 001.789-.058z" class="cls-3" transform="translate(-.9 -27.237)"/><g id="Group_21" data-name="Group 21" transform="translate(13.909)"><path id="Cord_1_" fill="#ececec" d="M26.2 16.2s22.682-27.588 75.087-10.85 66.834 68.334 57.138 93.729-41.439 57.888-76.588 72.086-63.89 39.247-33.244 39.935 78.492-48.365 93.383-42.19c12.12 2.77 17.2 8.2 17.2 8.2l-2.482 2.655s-9.523-4.964-14.717-6.753-9.234.231-20.547 7.445-40.978 32.378-71.74 35.091-19.969-21.989-.75-33.648 41.959-18.18 48.942-23.894 46.4-31.512 56.041-60.485-7.849-71.97-54.54-88.014S30.3 19.2 30.3 19.2a4.549 4.549 0 01-2.251-.75A7.716 7.716 0 0126.2 16.2z" transform="translate(-25.507 .561)"/><path id="Path_21" d="M44.739 216.09c-10.331 0-13.852-3.751-14.948-7.157-2.482-7.676 5.714-20.143 18.353-27.761C58.3 175 69.671 170.206 78.79 166.339c8.022-3.405 15.006-6.349 18.238-9 .981-.808 2.539-1.962 4.5-3.405 12.87-9.581 43.055-31.974 51.309-56.792 4.906-14.775 2.655-32.436-6.118-48.481-9.752-17.894-26.778-31.746-48.019-39.018C74.75 1.39 57.378 4.449 47.047 8.489c-11.2 4.329-16.737 10.677-16.8 10.735l-.173.231h-.284a4.96 4.96 0 01-2.539-.866 8.1 8.1 0 01-2.02-2.424l-.231-.4.231-.289c.231-.289 5.887-7.1 18.122-11.889 11.254-4.386 30.358-7.849 57.6.866 23.663 7.561 42.363 23.432 52.578 44.614 8.253 17.2 10.158 36.3 4.963 49.866-4.906 12.813-15.179 27.184-28.915 40.458C115.15 153.3 98.124 164.67 81.56 171.365c-25.8 10.446-47.153 26.318-45.768 33.994.519 3 4.79 4.675 12.351 4.906 16.16.4 37.168-13.274 55.753-25.279 16.391-10.62 30.589-19.854 37.8-16.91 12.12 2.828 17.2 8.138 17.43 8.369l.346.4-3.117 3.347-.4-.173c-.115-.058-9.581-4.964-14.66-6.695-4.79-1.674-8.369 0-20.027 7.388-1.962 1.27-4.559 3.059-7.5 5.194-14.544 10.389-38.9 27.761-64.468 30.012a67.31 67.31 0 01-4.561.172zM69.729 3.295a90.169 90.169 0 0129.377 5.252c21.47 7.388 38.784 21.412 48.711 39.477 8.946 16.276 11.2 34.283 6.175 49.4-8.369 25.221-38.727 47.73-51.713 57.369-1.962 1.443-3.521 2.6-4.5 3.405-3.347 2.77-10.042 5.6-18.526 9.177-9.061 3.867-20.373 8.657-30.473 14.775-12 7.272-20.2 19.335-17.892 26.433 1.616 4.906 7.907 7.041 18.3 6.118 25.221-2.251 49.462-19.508 63.89-29.781 3-2.135 5.541-3.982 7.561-5.252 11.139-7.1 15.525-9.408 21.066-7.5a150.573 150.573 0 0114.429 6.579l1.789-1.9c-1.385-1.27-6.522-5.367-16.506-7.676l-.115-.058c-6.695-2.77-20.662 6.291-36.764 16.8-18.7 12.12-39.881 25.856-56.388 25.452-8.253-.173-12.755-2.135-13.448-5.829-1.674-9.177 22.682-25.625 46.461-35.264 36.13-14.6 67.122-47.961 76.241-71.74 5.079-13.332 3.232-32.09-4.906-49-10.048-20.958-28.459-36.599-51.891-44.044-26.838-8.6-45.653-5.195-56.734-.924-10.5 4.1-16.218 9.869-17.43 11.254a8.515 8.515 0 001.5 1.731 3.878 3.878 0 001.616.577c1.1-1.212 6.695-6.81 17.084-10.793a65.059 65.059 0 0123.086-4.038z" class="cls-3" data-name="Path 21" transform="translate(-25 .944)"/></g><g id="Plug-2" transform="translate(137.637 172.708)"><g id="Group_22" data-name="Group 22" transform="translate(.02 4.552)"><path id="Shape_2_1_" d="M12.1 21.84l-11.774-6a.673.673 0 01-.289-.923.7.7 0 01.289-.289v-3.523l13.452-3.232a1.358 1.358 0 011.327 0l12 5.945z" class="cls-22" transform="translate(.581 -7.245)"/><path id="Path_22" d="M11.706 22.2l-12-6.176a1.206 1.206 0 01-.524-1.674.576.576 0 01.231-.289v-3.693l13.794-3.29a2.017 2.017 0 011.731.058l12.986 6.406zM.51 11.233v3.405l-.289.173a.057.057 0 00-.058.058c0 .058 0 .115.058.115l11.485 5.887 13.736-7.33-10.965-5.424a.984.984 0 00-.808 0H13.5z" class="cls-3" data-name="Path 22" transform="translate(.979 -6.911)"/></g><g id="Group_23" data-name="Group 23"><path id="Shape-8_1_" d="M16.2 16.218L.33 8.08a.673.673 0 01-.289-.923.7.7 0 01.289-.289L13.778.173a1.358 1.358 0 011.327 0l16.276 8.08z" class="cls-6" transform="translate(.601 .563)"/><path id="Path_23" d="M15.79 16.44L-.313 8.187A1.262 1.262 0 01-.89 6.514a1.132 1.132 0 01.519-.519L13.135-.759a2.078 2.078 0 011.847 0l17.256 8.542zM14 .165a1.07 1.07 0 00-.4.115L.207 6.975l-.058.058c0 .058 0 .115.058.115l15.583 7.965 13.91-7.33L14.4.28a.834.834 0 00-.4-.115z" class="cls-3" data-name="Path 23" transform="translate(1.013 .975)"/></g></g></g></g></svg>